<?xml version="1.0" standalone="no"?>
<!DOCTYPE svg PUBLIC "-//W3C//DTD SVG 20010904//EN"
 "http://www.w3.org/TR/2001/REC-SVG-20010904/DTD/svg10.dtd">
<svg version="1.0" xmlns="http://www.w3.org/2000/svg"
 width="1080.000000pt" height="1080.000000pt" viewBox="0 0 1080.000000 1080.000000"
 preserveAspectRatio="xMidYMid meet">
<metadata>
Created by potrace 1.14, written by Peter Selinger 2001-2017
</metadata>
<g transform="translate(0.000000,1080.000000) scale(0.100000,-0.100000)"
fill="#000000" stroke="none">
<path d="M0 5400 l0 -5400 5400 0 5400 0 0 605 c0 565 -1 605 -17 614 -17 10
-17 10 0 11 16 0 17 41 17 714 0 672 -1 715 -17 720 -45 12 -132 16 -156 7
-17 -7 -28 -7 -32 -1 -5 9 14 14 36 12 4 -1 6 10 7 24 0 16 -3 21 -8 14 -4 -7
-13 -9 -19 -6 -6 4 -11 3 -11 -3 0 -5 6 -12 13 -14 9 -4 9 -6 -1 -6 -7 -1 -22
8 -34 19 -24 22 -38 19 -18 -5 12 -14 10 -14 -16 -1 -87 45 -124 56 -124 36 0
-5 -5 -10 -12 -10 -28 0 19 28 58 35 32 5 44 2 55 -11 12 -16 12 -17 -3 -11
-48 19 -54 19 -34 3 22 -18 62 -21 70 -7 4 5 0 12 -6 15 -10 5 -10 7 0 12 6 3
12 11 12 19 0 16 25 37 33 28 4 -3 -1 -12 -11 -19 -9 -7 -13 -16 -8 -21 5 -4
11 -2 13 5 3 6 14 12 26 12 18 0 19 2 7 10 -13 8 -13 10 1 10 9 0 22 11 29 25
16 31 44 35 35 5 -5 -16 -2 -20 14 -20 22 0 29 26 9 32 -7 3 -9 11 -3 24 7 17
8 17 12 2 5 -19 33 -25 33 -8 0 6 -4 10 -9 10 -5 0 -7 10 -3 22 3 12 7 17 10
10 4 -14 52 -16 52 -2 0 6 -9 10 -21 10 -12 0 -17 4 -14 11 4 6 13 8 21 5 12
-5 14 61 14 429 0 315 -3 435 -11 435 -8 0 -8 5 1 15 10 12 10 15 -3 15 -9 0
-21 -8 -27 -18 -8 -12 -13 -13 -16 -4 -3 6 -16 12 -29 12 -13 0 -30 7 -38 15
-11 11 -23 12 -46 5 -20 -6 -31 -5 -31 2 0 5 -6 8 -14 5 -8 -3 -16 -1 -19 6
-2 6 -20 11 -41 10 -29 -1 -36 2 -32 13 3 9 -2 18 -12 21 -28 11 -55 40 -43
47 5 4 8 13 5 20 -6 14 48 25 144 29 23 1 42 5 42 10 0 4 4 5 10 2 6 -3 10 4
10 16 0 21 3 22 78 16 59 -5 70 -4 47 4 -16 6 -44 10 -62 10 -35 0 -57 18 -24
20 12 1 26 3 31 4 6 1 13 3 16 4 4 0 1 7 -5 15 -9 11 -9 16 0 22 7 4 15 2 17
-4 2 -7 16 -12 30 -12 25 1 25 2 10 14 -10 7 -18 16 -18 19 0 3 8 8 18 10 13
4 11 5 -5 6 -18 1 -23 7 -22 29 2 23 2 24 6 5 2 -13 11 -23 19 -23 12 0 14
456 14 3320 l0 3320 -5400 0 -5400 0 0 -5400z m6638 5272 c2 -7 -3 -12 -12
-12 -9 0 -16 7 -16 16 0 17 22 14 28 -4z m-3543 -22 c3 -5 1 -10 -4 -10 -6 0
-11 5 -11 10 0 6 2 10 4 10 3 0 8 -4 11 -10z m3225 -110 c0 -5 -4 -10 -10 -10
-5 0 -10 5 -10 10 0 6 5 10 10 10 6 0 10 -4 10 -10z m2803 -103 c3 -8 1 -20
-4 -28 -7 -12 -11 -11 -25 3 -17 17 -12 38 11 38 7 0 15 -6 18 -13z m-3283
-66 c0 -13 -43 -22 -54 -11 -6 6 0 13 15 19 25 9 39 6 39 -8z m805 -21 c3 -5
1 -10 -4 -10 -6 0 -11 5 -11 10 0 6 2 10 4 10 3 0 8 -4 11 -10z m-395 -54 c0
-3 -4 -8 -10 -11 -5 -3 -10 -1 -10 4 0 6 5 11 10 11 6 0 10 -2 10 -4z m3674
-28 c14 -22 -12 -52 -37 -42 -17 6 -23 44 -10 58 11 11 35 3 47 -16z m-476 0
c-6 -18 -28 -21 -28 -4 0 9 7 16 16 16 9 0 14 -5 12 -12z m-5188 -188 c0 -5
-4 -10 -10 -10 -5 0 -10 5 -10 10 0 6 5 10 10 10 6 0 10 -4 10 -10z m-870 -30
c0 -5 -2 -10 -4 -10 -3 0 -8 5 -11 10 -3 6 -1 10 4 10 6 0 11 -4 11 -10z
m4060 -80 c0 -5 -4 -10 -10 -10 -5 0 -10 5 -10 10 0 6 5 10 10 10 6 0 10 -4
10 -10z m-270 -15 c0 -8 -7 -15 -15 -15 -8 0 -15 7 -15 15 0 8 7 15 15 15 8 0
15 -7 15 -15z m1418 -26 c-2 -6 -8 -10 -13 -10 -5 0 -11 4 -13 10 -2 6 4 11
13 11 9 0 15 -5 13 -11z m622 -39 c0 -5 -5 -10 -11 -10 -5 0 -7 5 -4 10 3 6 8
10 11 10 2 0 4 -4 4 -10z m-7637 -7 c8 -7 -11 -33 -23 -33 -5 0 -6 9 -3 20 5
20 15 25 26 13z m3447 -3 c0 -5 -2 -10 -4 -10 -3 0 -8 5 -11 10 -3 6 -1 10 4
10 6 0 11 -4 11 -10z m3552 -15 c0 -5 -5 -11 -11 -13 -6 -2 -11 4 -11 13 0 9
5 15 11 13 6 -2 11 -8 11 -13z m-8202 -10 c0 -8 -4 -15 -9 -15 -13 0 -22 16
-14 24 11 11 23 6 23 -9z m9524 -146 c-3 -5 -10 -7 -15 -3 -5 3 -7 10 -3 15 3
5 10 7 15 3 5 -3 7 -10 3 -15z m-5324 7 c0 -3 -4 -8 -10 -11 -5 -3 -10 -1 -10
4 0 6 5 11 10 11 6 0 10 -2 10 -4z m5880 -106 c0 -5 -4 -10 -10 -10 -5 0 -10
5 -10 10 0 6 5 10 10 10 6 0 10 -4 10 -10z m-7120 -95 c0 -8 -4 -15 -10 -15
-5 0 -10 7 -10 15 0 8 5 15 10 15 6 0 10 -7 10 -15z m2377 -81 c-3 -3 -12 -4
-19 -1 -8 3 -5 6 6 6 11 1 17 -2 13 -5z m-5327 -14 c0 -5 -4 -10 -10 -10 -5 0
-10 5 -10 10 0 6 5 10 10 10 6 0 10 -4 10 -10z m7225 -40 c3 -5 2 -10 -4 -10
-5 0 -13 5 -16 10 -3 6 -2 10 4 10 5 0 13 -4 16 -10z m-3875 -14 c0 -3 -4 -8
-10 -11 -5 -3 -10 -1 -10 4 0 6 5 11 10 11 6 0 10 -2 10 -4z m570 -46 c0 -5
-4 -10 -10 -10 -5 0 -10 5 -10 10 0 6 5 10 10 10 6 0 10 -4 10 -10z m4170
-100 c0 -5 -7 -10 -15 -10 -8 0 -15 5 -15 10 0 6 7 10 15 10 8 0 15 -4 15 -10z
m-7520 -51 c0 -5 -7 -9 -15 -9 -15 0 -20 12 -9 23 8 8 24 -1 24 -14z m348 -46
c-2 -10 -10 -18 -18 -18 -8 0 -16 8 -18 18 -2 12 3 17 18 17 15 0 20 -5 18
-17z m192 -89 c0 -9 -5 -14 -12 -12 -18 6 -21 28 -4 28 9 0 16 -7 16 -16z
m-930 -14 c0 -5 -7 -10 -15 -10 -8 0 -15 5 -15 10 0 6 7 10 15 10 8 0 15 -4
15 -10z m5515 -10 c3 -5 -1 -10 -10 -10 -9 0 -13 5 -10 10 3 6 8 10 10 10 2 0
7 -4 10 -10z m-4915 -70 c0 -5 -4 -10 -10 -10 -5 0 -10 5 -10 10 0 6 5 10 10
10 6 0 10 -4 10 -10z m3315 -40 c3 -5 1 -10 -4 -10 -6 0 -11 5 -11 10 0 6 2
10 4 10 3 0 8 -4 11 -10z m135 -20 c0 -11 -4 -20 -9 -20 -14 0 -23 18 -16 30
10 17 25 11 25 -10z m-2095 1 c7 -12 -12 -24 -25 -16 -11 7 -4 25 10 25 5 0
11 -4 15 -9z m4665 -1 c0 -5 -4 -10 -10 -10 -5 0 -10 5 -10 10 0 6 5 10 10 10
6 0 10 -4 10 -10z m-5690 -70 c0 -5 -4 -10 -10 -10 -5 0 -10 5 -10 10 0 6 5
10 10 10 6 0 10 -4 10 -10z m6800 0 c0 -5 -2 -10 -4 -10 -3 0 -8 5 -11 10 -3
6 -1 10 4 10 6 0 11 -4 11 -10z m-2466 -105 c-4 -8 -8 -15 -10 -15 -2 0 -4 7
-4 15 0 8 4 15 10 15 5 0 7 -7 4 -15z m-3104 1 c0 -3 -4 -8 -10 -11 -5 -3 -10
-1 -10 4 0 6 5 11 10 11 6 0 10 -2 10 -4z m4405 -26 c-3 -5 -10 -10 -16 -10
-5 0 -9 5 -9 10 0 6 7 10 16 10 8 0 12 -4 9 -10z m-4655 -126 c0 -8 -4 -12
-10 -9 -5 3 -10 10 -10 16 0 5 5 9 10 9 6 0 10 -7 10 -16z m1670 -9 c0 -8 -7
-15 -15 -15 -8 0 -15 7 -15 15 0 8 7 15 15 15 8 0 15 -7 15 -15z m-2555 -14
c7 -12 -12 -24 -25 -16 -11 7 -4 25 10 25 5 0 11 -4 15 -9z m4860 -61 c3 -5 1
-10 -4 -10 -6 0 -11 5 -11 10 0 6 2 10 4 10 3 0 8 -4 11 -10z m-1025 -75
c-231 -91 -249 -101 -272 -153 -11 -24 -18 -45 -16 -48 2 -2 19 10 37 26 42
39 63 50 229 115 75 30 139 50 140 45 2 -6 10 -10 17 -10 19 0 104 -123 112
-160 3 -18 12 -34 19 -37 8 -3 12 -9 9 -13 -3 -5 4 -32 15 -60 26 -65 36 -176
21 -222 -6 -19 -23 -45 -36 -56 -14 -12 -25 -29 -25 -37 0 -8 -3 -15 -8 -15
-4 0 -16 -16 -26 -35 -11 -20 -27 -35 -37 -35 -10 0 -21 -5 -24 -11 -13 -20
-153 17 -207 55 -71 49 -137 130 -173 211 -26 58 -42 82 -51 78 -10 -4 -14 3
-14 21 0 15 -7 40 -15 56 -8 16 -15 33 -14 37 1 4 1 19 0 33 l-2 25 -11 -25
c-6 -14 -17 -39 -26 -56 -11 -23 -14 -50 -10 -104 5 -67 4 -71 -8 -48 -10 19
-19 25 -34 21 -11 -3 -17 -9 -14 -14 3 -5 1 -9 -4 -9 -6 0 -13 -7 -16 -16 -3
-8 -2 -13 3 -10 11 7 22 -19 13 -29 -3 -3 -6 -18 -7 -33 0 -21 -5 -27 -25 -29
l-25 -2 25 8 c27 10 26 11 -7 15 -17 2 -23 -3 -23 -16 0 -11 -4 -16 -10 -13
-5 3 -10 2 -10 -2 0 -5 10 -13 23 -18 12 -6 21 -16 20 -23 -2 -6 8 -37 22 -68
29 -66 29 -65 13 -61 -7 1 -12 -3 -11 -9 1 -7 -6 -10 -17 -7 -23 6 -17 23 8
23 14 0 13 4 -6 22 -12 12 -33 22 -48 23 -20 0 -31 10 -50 42 -18 32 -19 41
-8 36 13 -5 15 0 11 31 -3 20 -2 36 2 36 4 0 8 11 9 24 1 20 -2 23 -20 18 -14
-3 -19 -1 -14 6 4 7 17 12 28 12 12 0 18 3 15 6 -3 4 -1 16 4 27 8 13 8 22 1
26 -6 4 -2 16 10 31 l21 25 -7 -34 c-6 -34 -6 -34 14 -16 11 10 17 22 14 27
-6 9 19 31 59 53 11 6 27 35 37 65 15 43 32 68 82 114 59 56 75 64 248 132
102 41 192 73 200 73 8 0 -59 -29 -150 -64z m408 52 c-13 -10 -15 -23 -11 -53
l5 -40 119 -37 c65 -21 119 -42 119 -47 0 -6 -4 -10 -10 -10 -5 0 -10 5 -10
10 0 6 -12 10 -26 10 -16 0 -23 -4 -18 -12 5 -8 0 -9 -16 -5 -28 7 -56 -23
-67 -73 -8 -40 -7 -53 9 -93 10 -25 12 -26 28 -12 24 21 40 19 71 -11 25 -24
26 -28 13 -42 -13 -13 -13 -17 4 -36 11 -11 26 -38 33 -59 8 -23 18 -36 26
-33 7 3 13 -1 13 -9 0 -7 5 -17 12 -21 6 -4 9 -3 5 2 -3 5 8 9 23 9 16 1 27
-2 25 -5 -2 -3 5 -6 15 -6 14 0 16 3 8 13 -7 9 -7 13 1 13 8 0 10 13 7 39 -4
32 -2 39 10 34 7 -3 16 1 19 9 8 19 -31 107 -50 114 -8 4 -15 12 -15 19 0 17
-56 59 -106 80 -46 19 -94 13 -114 -15 -19 -27 -33 -25 -24 3 9 30 22 37 69
37 80 -1 159 -53 223 -150 82 -123 58 -228 -48 -206 -34 6 -37 1 -13 -28 10
-12 11 -15 3 -8 -8 6 -18 12 -23 12 -4 0 -5 -6 -1 -12 5 -8 1 -8 -12 2 -29 22
-30 24 -11 17 11 -4 16 -3 12 3 -3 6 -14 10 -24 10 -22 0 -54 33 -44 45 5 4 3
5 -3 2 -6 -4 -20 3 -30 15 -19 21 -19 21 1 15 17 -6 17 -5 -2 9 -13 9 -23 21
-23 26 0 6 8 4 18 -3 15 -11 15 -11 4 1 -7 8 -16 15 -20 15 -10 1 -55 26 -68
39 -19 20 -35 56 -29 67 4 5 -5 21 -19 34 -15 13 -38 51 -52 85 -15 33 -31 60
-36 60 -5 0 -6 5 -3 10 3 6 -1 13 -10 16 -9 4 -14 13 -11 21 3 8 1 11 -4 8 -6
-4 -8 -35 -4 -81 5 -67 4 -73 -11 -68 -13 5 -14 9 -3 15 11 7 10 11 -2 18 -8
6 -11 13 -8 17 4 3 -6 26 -22 50 -32 46 -37 59 -17 48 7 -4 9 -3 4 2 -5 5 -12
9 -17 9 -12 0 -73 86 -65 93 7 8 54 -48 55 -65 0 -22 15 -14 60 33 42 43 71
62 95 63 6 0 2 -5 -7 -12z m4302 -7 c0 -5 -2 -10 -4 -10 -3 0 -8 5 -11 10 -3
6 -1 10 4 10 6 0 11 -4 11 -10z m-8980 -10 c0 -5 -4 -10 -10 -10 -5 0 -10 5
-10 10 0 6 5 10 10 10 6 0 10 -4 10 -10z m6630 -6 c0 -8 -4 -12 -10 -9 -5 3
-10 10 -10 16 0 5 5 9 10 9 6 0 10 -7 10 -16z m-1699 -59 c96 -37 180 -68 188
-71 8 -2 12 -6 9 -9 -6 -6 -362 126 -377 141 -10 9 15 1 180 -61z m4422 0 c1
-5 -6 -11 -15 -13 -11 -2 -18 3 -18 13 0 17 30 18 33 0z m-9723 -10 c0 -8 -4
-15 -9 -15 -13 0 -22 16 -14 24 11 11 23 6 23 -9z m3480 -10 c0 -8 -7 -15 -15
-15 -8 0 -15 7 -15 15 0 8 7 15 15 15 8 0 15 -7 15 -15z m-1820 -50 c0 -8 -7
-15 -15 -15 -8 0 -15 7 -15 15 0 8 7 15 15 15 8 0 15 -7 15 -15z m-1150 -5 c0
-5 -5 -10 -11 -10 -5 0 -7 5 -4 10 3 6 8 10 11 10 2 0 4 -4 4 -10z m762 -25
c0 -5 -5 -11 -11 -13 -6 -2 -11 4 -11 13 0 9 5 15 11 13 6 -2 11 -8 11 -13z
m4049 -13 c-7 -2 -18 1 -23 6 -8 8 -4 9 13 5 13 -4 18 -8 10 -11z m322 -49
c16 -13 25 -23 20 -23 -4 1 -26 17 -48 37 -40 36 -25 28 28 -14z m-191 0 c26
-14 55 -33 65 -42 10 -9 30 -22 45 -30 15 -8 41 -31 58 -52 34 -43 104 -169
93 -169 -3 0 3 -10 14 -22 21 -24 37 -81 25 -92 -3 -4 -8 -19 -10 -34 -2 -15
-10 -37 -17 -49 -11 -16 -12 -23 -2 -27 6 -4 -13 -4 -44 -2 -59 4 -116 28
-219 92 -64 39 -64 39 -32 42 21 2 45 16 66 37 54 54 56 128 5 229 -28 57
-117 149 -136 141 -8 -2 -11 0 -8 6 8 12 36 4 97 -28z m-427 -139 c8 -43 14
-80 15 -81 0 -1 12 -13 26 -26 23 -22 25 -27 13 -48 -7 -13 -12 -27 -11 -31 1
-4 -5 -5 -12 -2 -9 3 -12 12 -8 22 5 15 4 15 -11 3 -9 -7 -14 -17 -11 -22 3
-5 1 -9 -4 -9 -5 0 -26 -26 -47 -57 -20 -32 -51 -69 -68 -83 -27 -20 -24 -15
14 30 68 82 99 166 95 262 -2 49 -9 85 -19 101 -9 14 -13 28 -10 31 13 13 25
-14 38 -90z m170 76 c3 -5 1 -10 -4 -10 -6 0 -11 5 -11 10 0 6 2 10 4 10 3 0
8 -4 11 -10z m2930 0 c3 -5 1 -10 -4 -10 -6 0 -11 5 -11 10 0 6 2 10 4 10 3 0
8 -4 11 -10z m-5825 -30 c0 -5 -4 -10 -10 -10 -5 0 -10 5 -10 10 0 6 5 10 10
10 6 0 10 -4 10 -10z m1922 -22 c-7 -7 -12 -8 -12 -2 0 14 12 26 19 19 2 -3
-1 -11 -7 -17z m-3332 -88 c0 -5 -4 -10 -10 -10 -5 0 -10 5 -10 10 0 6 5 10
10 10 6 0 10 -4 10 -10z m4425 -18 c-3 -3 -11 0 -18 7 -9 10 -8 11 6 5 10 -3
15 -9 12 -12z m35 -2 c0 -5 -2 -10 -4 -10 -3 0 -8 5 -11 10 -3 6 -1 10 4 10 6
0 11 -4 11 -10z m474 -79 c27 -91 13 -176 -32 -192 l-23 -9 20 26 c11 14 23
42 27 61 6 30 -7 126 -23 172 -4 11 -3 13 5 6 5 -5 17 -34 26 -64z m-441 1
c-18 -5 -27 3 -18 17 4 7 10 7 20 -2 11 -10 11 -13 -2 -15z m-5673 -28 c0 -9
-5 -14 -12 -12 -18 6 -21 28 -4 28 9 0 16 -7 16 -16z m2065 -4 c3 -6 -1 -13
-10 -16 -19 -8 -30 0 -20 15 8 14 22 14 30 1z m2200 -30 c-3 -5 -1 -10 4 -10
6 0 11 5 11 10 0 6 5 10 11 10 8 0 8 -5 -1 -15 -7 -8 -19 -15 -26 -15 -15 0
-19 12 -7 23 10 10 15 8 8 -3z m-11 -45 c-4 -8 -10 -15 -15 -15 -4 0 -6 7 -3
15 4 8 10 15 15 15 4 0 6 -7 3 -15z m-100 -141 c-46 -47 -92 -96 -102 -107
-30 -36 -87 -85 -71 -61 23 35 243 261 250 258 4 -2 -31 -43 -77 -90z m312 39
c-7 -7 -26 7 -26 19 0 6 6 6 15 -2 9 -7 13 -15 11 -17z m1414 -10 c22 -10 40
-21 40 -26 0 -4 -4 -6 -9 -3 -5 4 -7 -4 -3 -16 3 -12 7 -17 10 -10 2 6 10 12
18 12 10 0 12 -5 8 -12 -5 -7 5 -3 20 10 16 12 36 22 45 21 10 0 11 -2 4 -6
-7 -2 -48 -39 -91 -81 -43 -42 -93 -88 -111 -102 -18 -14 -69 -55 -113 -92
-43 -38 -83 -68 -88 -68 -5 0 -15 -2 -23 -6 -10 -4 -14 2 -13 23 1 21 -3 27
-17 25 -9 -2 -17 2 -17 8 0 6 -12 23 -27 37 -27 25 -27 25 -4 18 22 -7 23 -5
17 19 -3 14 -3 25 1 24 15 -3 63 21 63 32 0 5 8 10 18 10 14 0 15 2 2 10 -12
8 -10 10 10 11 14 1 28 1 31 1 3 -1 5 10 3 24 -1 16 5 29 17 37 10 6 19 17 19
24 0 6 8 18 19 25 10 7 19 18 20 23 1 6 10 9 19 8 9 -1 20 3 24 10 3 6 16 11
27 12 19 1 19 0 7 -14 -13 -14 -10 -16 31 -12 l45 3 -28 19 c-36 24 -26 24 26
2z m77 -29 c-3 -3 -12 -4 -19 -1 -8 3 -5 6 6 6 11 1 17 -2 13 -5z m-1387 -40
c0 -2 -9 0 -20 6 -11 6 -20 13 -20 16 0 2 9 0 20 -6 11 -6 20 -13 20 -16z
m-2752 -12 c2 -7 -6 -12 -17 -12 -21 0 -27 11 -14 24 9 9 26 2 31 -12z m2467
-52 c-3 -5 -1 -11 4 -14 5 -3 7 -15 4 -26 -3 -11 -10 -17 -15 -14 -15 9 -57
-17 -52 -31 3 -7 -2 -20 -11 -29 -9 -9 -13 -20 -10 -26 4 -6 3 -10 -2 -9 -25
4 -33 -3 -29 -27 4 -21 3 -24 -9 -14 -11 9 -19 6 -38 -14 -25 -27 -44 -35 -31
-13 6 9 5 9 -8 0 -8 -7 -18 -11 -22 -8 -3 3 -2 0 4 -7 6 -8 4 -15 -8 -24 -9
-7 -14 -15 -10 -19 3 -4 16 3 27 14 l21 21 48 -62 c26 -34 59 -69 74 -78 l28
-15 94 94 c81 81 97 93 110 82 9 -7 48 -23 88 -36 58 -18 69 -24 53 -31 -11
-4 -22 -11 -25 -14 -3 -4 -14 -12 -25 -19 l-20 -13 20 6 c14 5 11 -2 -13 -23
-18 -16 -31 -34 -30 -40 3 -11 -36 -38 -119 -82 -23 -12 -40 -26 -38 -30 3 -4
-17 -12 -45 -19 -27 -7 -66 -25 -86 -41 -36 -29 -61 -38 -49 -19 3 6 -2 10
-12 11 -10 0 -13 3 -5 6 28 11 8 18 -53 18 -48 1 -62 -2 -54 -11 5 -7 25 -15
44 -18 19 -4 35 -11 35 -17 0 -11 -41 -3 -92 18 -29 12 -35 19 -29 31 6 11 1
22 -20 39 l-29 25 31 25 30 26 37 -35 c57 -54 83 -68 127 -68 30 0 36 3 25 10
-13 9 -12 12 4 25 14 11 16 15 5 15 -8 1 1 7 19 15 33 15 45 32 15 21 -15 -5
-15 -4 1 9 11 8 23 15 28 15 4 0 8 7 8 15 0 9 8 14 21 12 12 -1 23 4 25 11 1
7 0 8 -2 3 -3 -5 -14 -7 -25 -4 -11 3 -28 -2 -39 -12 -19 -18 -22 -17 -70 24
-47 40 -78 47 -66 15 3 -8 2 -13 -2 -13 -24 4 -42 -3 -42 -15 0 -10 -11 -5
-32 14 -26 24 -35 27 -47 18 -13 -10 -14 -10 -4 2 8 9 9 19 2 32 -6 12 -6 18
1 18 5 0 10 5 10 11 0 5 -4 7 -10 4 -6 -3 -7 1 -4 9 8 22 21 20 27 -4 3 -11
10 -20 17 -20 12 0 4 41 -11 51 -5 3 14 30 41 60 29 30 54 50 58 44 4 -6 16
-17 27 -25 15 -11 14 -8 -4 12 l-24 27 73 75 c40 42 77 73 82 70 4 -3 6 -9 3
-14z m-3911 -21 c-8 -14 -34 -11 -34 4 0 8 3 17 7 20 9 9 34 -13 27 -24z
m1231 1 c-5 -8 -11 -8 -17 -2 -6 6 -7 16 -3 22 5 8 11 8 17 2 6 -6 7 -16 3
-22z m5805 -70 c0 -5 -4 -10 -10 -10 -5 0 -10 5 -10 10 0 6 5 10 10 10 6 0 10
-4 10 -10z m-3490 -45 c-24 -25 -46 -45 -49 -45 -3 0 15 20 39 45 24 25 46 45
49 45 3 0 -15 -20 -39 -45z m1414 -67 c-5 -9 -2 -8 9 1 14 11 23 11 40 3 12
-6 43 -18 70 -28 26 -9 47 -18 47 -20 0 -9 -259 -227 -279 -235 -28 -11 -41 1
-41 42 0 15 -7 29 -15 33 -17 6 -21 36 -5 36 6 0 10 8 10 19 0 10 9 21 20 24
13 3 18 11 14 20 -3 8 2 21 11 28 8 8 21 19 28 25 7 6 25 14 40 18 15 3 27 13
27 20 0 12 10 21 28 25 2 1 0 -5 -4 -11z m-3334 -143 c0 -8 -4 -15 -10 -15 -5
0 -10 7 -10 15 0 8 5 15 10 15 6 0 10 -7 10 -15z m1906 -10 c-3 -8 0 -15 7
-15 8 0 6 -4 -3 -10 -11 -7 -12 -10 -2 -10 21 0 44 -27 29 -34 -9 -5 -9 -7 1
-12 10 -5 10 -9 1 -20 -6 -8 -16 -11 -22 -7 -5 3 -7 1 -3 -5 10 -16 -13 -25
-29 -12 -9 7 -13 21 -9 34 3 14 -1 28 -11 36 -14 12 -13 16 11 42 31 32 39 35
30 13z m1074 -20 c14 -8 21 -14 15 -14 -5 0 -21 6 -35 14 -14 8 -20 14 -15 14
6 0 21 -6 35 -14z m-924 -28 c1 -9 -2 -15 -7 -11 -5 3 -7 9 -4 14 3 4 0 11 -5
13 -6 3 -5 4 1 3 7 -1 13 -10 15 -19z m945 -11 c30 -13 65 -27 79 -31 22 -7
23 -6 12 8 -12 14 -10 15 18 4 17 -6 39 -21 49 -32 18 -20 64 -172 76 -252 8
-49 7 -50 -77 -32 -62 13 -84 30 -93 70 -4 16 -16 34 -27 40 -16 9 -19 8 -13
-3 4 -7 -4 1 -18 17 -22 26 -23 31 -9 37 10 4 11 7 5 7 -7 1 -13 8 -13 17 0
14 3 14 15 4 9 -8 15 -8 15 -2 0 6 -10 14 -21 17 -19 7 -42 -12 -44 -35 -1
-15 -18 -30 -34 -30 -26 0 -81 29 -81 43 0 7 -4 6 -10 -3 -9 -14 -5 44 6 78 5
17 50 11 46 -6 -2 -9 3 -10 15 -3 20 10 58 -10 45 -24 -4 -5 0 -4 8 1 20 12
53 11 63 -1 5 -6 6 -1 3 10 -2 11 -7 34 -11 52 -4 21 -17 39 -38 52 -42 27
-31 26 34 -3z m69 -2 c0 -9 -28 -3 -46 11 -17 13 -16 14 14 4 17 -6 32 -13 32
-15z m4645 16 c3 -5 -1 -10 -10 -10 -9 0 -13 5 -10 10 3 6 8 10 10 10 2 0 7
-4 10 -10z m-4850 -10 c-3 -5 1 -10 10 -10 20 0 14 -24 -7 -28 -10 -2 -14 4
-12 20 3 28 3 28 10 28 3 0 2 -4 -1 -10z m45 -40 c0 -5 -4 -10 -10 -10 -5 0
-10 5 -10 10 0 6 5 10 10 10 6 0 10 -4 10 -10z m68 -26 c1 -1 -5 -4 -15 -6
-13 -4 -19 0 -19 13 0 14 3 16 16 6 8 -6 16 -12 18 -13z m-158 -24 c0 -5 -2
-10 -4 -10 -3 0 -8 5 -11 10 -3 6 -1 10 4 10 6 0 11 -4 11 -10z m-549 -75 c-1
-15 -24 -12 -29 3 -3 9 2 13 12 10 10 -1 17 -7 17 -13z m19 -24 c0 -12 -20
-25 -27 -18 -7 7 6 27 18 27 5 0 9 -4 9 -9z m600 -86 c-7 -8 -9 -15 -5 -15 14
0 -16 -28 -35 -33 -18 -5 -19 -3 -4 24 8 16 21 29 29 29 8 0 15 5 15 12 0 6 3
8 6 5 4 -4 1 -13 -6 -22z m156 -11 c19 -20 32 -40 29 -45 -4 -5 5 -9 19 -9 13
0 37 -5 53 -12 15 -6 44 -12 63 -12 33 -1 35 -3 38 -36 8 -78 -36 -146 -85
-134 -18 5 -21 10 -13 24 6 10 10 21 10 24 0 13 -25 4 -48 -16 l-24 -23 6 23
c4 12 3 22 -2 22 -6 0 -7 14 -1 37 5 23 4 42 -1 47 -6 6 -10 18 -10 28 0 10
-5 18 -11 18 -6 0 -8 -9 -4 -20 3 -11 4 -29 0 -40 -6 -18 -8 -19 -31 -4 -28
19 -74 11 -74 -12 0 -8 -4 -13 -9 -10 -5 4 -7 -4 -4 -15 4 -15 0 -27 -13 -37
-18 -14 -18 -14 2 -8 27 8 55 -20 30 -30 -26 -10 -69 5 -62 21 3 9 -1 15 -9
15 -19 0 -19 9 0 30 21 24 6 61 -37 88 -30 20 -27 28 11 23 7 -2 10 2 7 7 -9
16 18 21 37 7 9 -6 14 -15 11 -18 -3 -3 6 -4 21 -3 14 2 33 12 41 22 9 11 12
13 8 5 -5 -10 -3 -12 5 -7 8 5 9 12 3 19 -13 16 -12 67 1 67 5 0 25 -16 43
-36z m-96 -9 c-7 -9 -15 -13 -19 -10 -3 3 1 10 9 15 21 14 24 12 10 -5z
m-1326 -135 c17 -5 66 -19 109 -31 42 -12 77 -25 77 -30 0 -4 -10 -5 -22 -3
-45 9 13 -14 135 -52 65 -20 116 -38 114 -41 -6 -5 -62 10 -232 62 -66 20
-142 38 -168 40 -51 5 -87 19 -87 35 0 5 8 6 17 3 12 -5 15 -2 10 10 -7 20 3
21 47 7z m1234 -19 c3 -8 -1 -12 -9 -9 -7 2 -15 10 -17 17 -3 8 1 12 9 9 7 -2
15 -10 17 -17z m-963 -11 l20 -9 -20 0 c-11 0 -29 4 -40 9 l-20 9 20 0 c11 0
29 -4 40 -9z m681 -55 c-57 -52 -83 -61 -82 -31 1 15 -5 21 -19 19 -19 -1 -19
-1 -3 11 10 7 15 16 12 19 -3 3 2 4 13 1 10 -2 41 6 68 19 28 13 52 20 54 14
2 -5 -18 -28 -43 -52z m433 56 c9 -6 10 -10 2 -16 -15 -8 -41 1 -41 15 0 12
20 13 39 1z m-1455 -28 c-4 -10 -18 -49 -31 -88 -13 -38 -28 -74 -33 -79 -17
-17 -12 25 9 79 11 28 24 62 30 78 6 15 16 27 22 27 7 0 8 -7 3 -17z m1066
-57 c0 -3 -4 -8 -10 -11 -5 -3 -10 -1 -10 4 0 6 5 11 10 11 6 0 10 -2 10 -4z
m-60 -26 c-8 -5 -19 -10 -25 -10 -5 0 -3 5 5 10 8 5 20 10 25 10 6 0 3 -5 -5
-10z m-470 -30 c8 -5 11 -10 5 -10 -5 0 -17 5 -25 10 -8 5 -10 10 -5 10 6 0
17 -5 25 -10z m47 -16 c-3 -3 -12 -4 -19 -1 -8 3 -5 6 6 6 11 1 17 -2 13 -5z
m262 -58 c51 -15 103 -34 116 -42 12 -8 24 -12 27 -8 9 8 192 -44 196 -56 2
-6 11 -6 24 1 11 6 18 7 15 2 -3 -4 21 -9 53 -10 32 -1 67 -6 77 -11 10 -5 25
-7 33 -4 10 3 3 10 -20 18 l-35 13 45 -5 c25 -3 56 -9 70 -14 14 -5 48 -11 75
-15 28 -3 71 -13 98 -20 26 -8 47 -10 47 -4 0 5 -7 9 -15 9 -8 0 -15 5 -15 10
0 6 -11 8 -25 4 -21 -5 -24 -3 -19 10 5 13 14 16 38 11 29 -5 29 -4 6 5 -13 6
-56 15 -95 19 -38 5 -61 9 -50 10 16 2 15 4 -10 16 l-30 15 34 -6 c52 -9 66
-12 66 -14 0 -1 9 -3 20 -5 20 -4 183 -50 280 -80 28 -8 54 -15 59 -14 5 0 12
-3 15 -8 11 -16 59 -32 80 -26 12 3 21 1 21 -4 0 -5 37 -10 83 -11 45 -2 90
-5 100 -8 16 -5 171 17 251 35 22 5 53 20 70 32 l31 22 -30 -32 c-16 -18 -38
-37 -47 -42 -30 -16 -171 -39 -248 -40 -53 -1 -68 -3 -50 -9 23 -7 23 -8 3 -9
-12 -1 -29 2 -38 5 -13 6 -14 9 -3 16 9 7 7 8 -7 3 -11 -4 -38 -7 -60 -6 -70
3 -26 -16 95 -42 98 -21 111 -26 90 -34 -23 -10 -23 -10 -5 -20 11 -6 54 -13
95 -15 70 -4 66 0 -12 17 -16 3 -28 10 -28 16 0 6 4 7 10 4 5 -3 22 -8 37 -10
117 -18 141 -21 137 -13 -6 9 32 2 75 -14 13 -5 26 -6 29 -3 3 3 -1 5 -9 5
-11 0 -12 2 -1 9 9 6 -8 14 -52 26 -61 17 -96 35 -64 35 28 -1 279 -78 303
-94 34 -22 32 -33 -6 -28 -17 2 -42 -1 -55 -8 -21 -12 -26 -11 -37 2 -6 9 -33
19 -59 23 -47 6 -48 6 -48 -20 0 -17 -7 -29 -22 -35 -18 -7 -19 -9 -5 -9 20
-1 21 -5 8 -29 -25 -46 -109 -371 -102 -396 4 -17 -30 -116 -40 -116 -6 0 -8
-4 -5 -9 3 -5 0 -11 -8 -14 -11 -4 -12 2 -4 36 5 23 7 50 5 59 -3 10 -1 18 5
18 6 0 8 7 4 15 -3 8 -2 15 2 15 7 0 32 70 32 90 0 5 -19 11 -42 12 l-43 1 43
4 c28 3 42 8 39 16 -2 7 9 50 25 96 15 47 28 94 28 105 0 12 7 30 15 40 8 11
15 28 15 37 0 15 -14 19 -92 25 -54 4 -85 10 -74 14 29 10 3 16 -74 17 l-65 1
53 -10 c28 -6 52 -16 52 -22 0 -24 -17 -32 -63 -33 -37 0 -45 2 -36 13 6 8 24
11 47 8 25 -4 32 -2 22 4 -21 13 -162 23 -155 11 4 -5 19 -9 35 -9 21 0 28 -4
24 -14 -4 -10 -22 -12 -75 -8 -39 3 -69 1 -67 -4 4 -17 -13 -54 -27 -54 -7 0
-15 -11 -17 -24 -4 -17 -1 -23 9 -19 7 3 13 0 13 -6 0 -6 -6 -11 -14 -11 -8 0
-19 -12 -24 -27 -10 -26 -11 -26 -12 -5 -2 12 -3 28 -4 35 -1 6 3 18 8 26 8
11 8 13 -1 7 -20 -11 -15 15 5 30 14 11 15 15 3 23 -20 13 -22 58 -3 77 10 11
17 13 20 6 5 -16 52 37 52 58 0 14 -11 16 -72 15 -40 0 -81 3 -90 7 -10 5 -37
11 -62 14 -37 4 -48 1 -65 -17 -18 -20 -24 -21 -47 -10 -19 8 -25 17 -21 31 8
32 -24 45 -188 79 -174 36 -255 63 -255 86 0 7 -20 15 -47 18 -40 5 -253 70
-343 105 -14 5 -56 19 -95 30 -38 12 -83 26 -100 31 -66 23 70 3 164 -23z
m931 -77 c206 -60 376 -112 379 -115 9 -9 -70 -4 -87 6 -24 13 -319 105 -422
130 -93 23 -270 79 -270 86 0 10 49 -3 400 -107z m-400 51 c0 -5 -7 -7 -15 -4
-8 4 -15 8 -15 10 0 2 7 4 15 4 8 0 15 -4 15 -10z m-1478 -56 c-3 -18 -20 -33
-62 -54 -58 -29 -102 -71 -146 -141 -13 -22 -29 -37 -34 -34 -4 3 -25 -11 -46
-30 -20 -19 -38 -34 -40 -32 -2 1 7 20 19 42 19 32 28 40 52 40 20 0 31 6 33
18 2 9 7 17 12 17 5 0 11 14 15 30 4 17 10 30 15 30 4 0 32 30 62 66 73 92
133 116 120 48z m471 32 c42 -13 48 -12 58 2 9 15 10 15 5 -2 -5 -14 -2 -17 9
-12 9 3 13 2 10 -4 -3 -5 6 -12 20 -16 14 -3 23 -9 21 -12 -6 -6 -76 13 -113
30 -12 6 -28 8 -35 6 -7 -3 -19 1 -26 8 -16 18 -7 18 51 0z m-49 -71 c54 -24
105 -50 114 -58 9 -8 24 -17 32 -20 13 -5 13 -6 -1 -6 -9 -1 -24 -10 -35 -22
-17 -19 -19 -19 -25 -2 -7 17 -8 17 -8 1 -1 -10 -6 -18 -12 -18 -6 0 -9 6 -6
13 19 52 19 54 -25 72 -24 9 -65 30 -91 47 -27 17 -54 31 -61 31 -7 0 -13 9
-13 20 -2 18 -1 18 16 3 10 -9 62 -36 115 -61z m-384 55 c0 -5 -2 -10 -4 -10
-3 0 -8 5 -11 10 -3 6 -1 10 4 10 6 0 11 -4 11 -10z m591 -13 c-10 -9 -11 -8
-5 6 3 10 9 15 12 12 3 -3 0 -11 -7 -18z m248 -27 c10 -5 28 -6 40 -3 18 5 19
8 9 22 -10 12 -8 12 8 -2 12 -10 25 -17 30 -15 18 5 103 -25 108 -38 3 -7 14
-11 26 -9 11 2 20 0 20 -5 0 -4 10 -6 22 -2 14 3 19 1 14 -6 -5 -8 -2 -10 8
-6 10 4 19 -1 23 -12 5 -11 14 -19 21 -20 6 -1 18 -2 25 -2 6 -1 17 -18 23
-37 11 -36 7 -37 -28 -7 -16 14 -18 13 -18 -1 0 -19 -9 -21 -42 -8 -45 18 -63
24 -88 27 -46 6 0 -14 119 -51 106 -34 151 -39 136 -15 -12 19 28 24 57 7 28
-16 78 -14 78 2 0 4 15 6 33 4 24 -3 29 -2 17 6 -8 6 -25 11 -37 11 -12 0 -25
5 -28 10 -9 14 38 3 90 -21 23 -11 32 -18 20 -18 -43 2 -43 5 18 -50 l27 -25
21 22 c11 12 17 27 14 32 -7 11 1 12 33 4 12 -4 22 -11 22 -16 0 -6 -6 -8 -14
-5 -12 5 -12 2 -1 -20 10 -18 11 -32 4 -44 -5 -10 -9 -27 -9 -38 0 -10 -4 -21
-9 -23 -4 -1 -11 -13 -15 -24 -6 -19 -1 -23 31 -30 30 -6 33 -9 16 -12 -14 -2
-25 -13 -29 -28 -3 -13 -12 -24 -20 -24 -22 0 -16 -16 6 -17 11 -1 18 2 15 7
-3 4 4 6 15 3 13 -3 20 -14 20 -29 0 -14 6 -24 15 -24 9 0 12 6 8 17 -4 11 -3
14 5 9 17 -10 15 -32 -4 -50 -8 -9 -13 -20 -9 -25 3 -6 -3 -15 -12 -21 -16
-10 -15 -11 5 -6 19 4 21 2 12 -9 -7 -8 -15 -14 -18 -13 -23 3 -42 -4 -37 -12
4 -6 12 -7 18 -3 8 5 8 2 -1 -9 -15 -19 -5 -29 58 -56 40 -17 49 -18 84 -5 22
7 47 20 56 28 13 12 31 14 71 10 l55 -6 12 34 c7 18 12 44 13 58 0 13 7 40 15
59 l14 35 -5 -50 c-3 -35 -2 -45 5 -35 11 17 13 1 4 -25 -5 -12 -9 -13 -14 -5
-4 7 -13 -10 -20 -40 -10 -44 -10 -54 1 -61 8 -5 15 -4 17 1 6 15 19 12 19 -5
0 -8 -6 -15 -14 -15 -10 0 -11 -5 -3 -19 5 -11 10 -34 10 -51 0 -17 7 -45 17
-63 9 -18 15 -47 15 -66 -1 -19 5 -42 12 -50 8 -9 22 -40 31 -69 10 -29 21
-55 26 -58 5 -3 9 -16 9 -30 0 -14 4 -23 9 -20 14 9 19 -16 10 -42 -7 -17 -14
-22 -29 -17 -11 3 -28 2 -37 -4 -14 -8 -15 -11 -3 -12 8 0 2 -7 -15 -14 -32
-14 -50 -11 -39 7 5 7 0 9 -13 6 -12 -3 -27 -2 -34 2 -7 5 -22 2 -35 -7 -21
-13 -25 -13 -45 6 -18 17 -19 21 -7 26 8 3 15 12 15 20 0 8 -3 12 -7 10 -10
-6 -41 18 -44 35 -2 8 -7 24 -11 35 -4 11 -14 35 -21 54 -17 41 -17 48 -2 33
7 -7 17 -12 23 -12 6 0 7 3 0 8 -16 11 -36 52 -26 52 5 0 13 -9 16 -20 7 -23
25 -27 25 -6 0 7 7 19 15 26 8 7 12 17 8 23 -4 6 0 8 9 5 8 -4 21 -2 29 3 9 6
10 9 2 9 -7 0 -10 7 -7 15 4 8 -1 26 -10 40 -9 13 -16 32 -16 42 0 10 -11 35
-25 56 -14 20 -22 37 -18 38 4 0 -2 4 -14 9 -12 5 -34 5 -50 0 -15 -4 -23 -9
-16 -9 24 -2 66 -71 69 -114 3 -35 -1 -45 -22 -61 l-26 -18 3 44 c4 57 -5 69
-47 66 -27 -2 -33 -6 -28 -18 12 -30 9 -45 -11 -46 -34 -2 -36 -3 -25 -24 6
-11 16 -17 25 -14 24 10 17 -12 -10 -30 -26 -17 -24 -45 4 -47 14 -1 14 -2 -1
-6 -10 -2 -18 -9 -18 -13 0 -13 54 -40 78 -40 29 0 59 -80 68 -182 6 -57 6
-57 -30 -79 -20 -11 -36 -27 -36 -34 0 -7 -25 -23 -55 -36 -30 -12 -52 -26
-49 -30 7 -12 -34 -31 -54 -26 -12 3 -11 5 6 6 26 1 28 13 5 37 -19 19 -22 29
-27 94 -2 25 -5 46 -6 48 -1 1 -4 7 -5 12 -1 6 -4 12 -5 15 -6 13 -5 31 3 36
5 4 3 17 -4 30 -7 13 -12 30 -11 36 2 7 -3 32 -9 55 -7 24 -14 54 -15 67 -2
14 -9 28 -17 33 -8 4 -13 17 -10 30 2 14 -6 35 -21 53 -20 25 -31 30 -67 29
l-44 -1 30 13 c17 7 40 13 53 14 12 0 30 4 40 9 9 5 26 12 37 16 17 6 13 10
-28 31 -37 19 -52 22 -67 14 -16 -8 -20 -8 -20 4 0 18 47 64 74 72 15 5 16 8
5 15 -11 6 -9 9 8 9 12 0 25 -4 28 -10 3 -5 1 -10 -6 -10 -7 0 -10 -2 -8 -5 3
-2 26 5 51 17 40 18 46 25 43 47 -2 18 -8 25 -19 23 -14 -3 -15 0 -4 17 9 15
14 17 20 8 6 -9 8 -9 8 1 0 8 5 10 13 6 10 -6 10 -4 0 7 -15 16 -17 33 -3 24
6 -4 7 1 3 10 -3 10 0 21 8 25 7 5 10 12 6 17 -5 4 -12 1 -16 -6 -5 -7 -14
-11 -19 -7 -12 7 -41 -42 -48 -79 -2 -12 -10 -35 -18 -49 -10 -20 -15 -23 -19
-12 -4 9 0 21 7 29 9 9 11 19 5 29 -6 11 -4 20 7 28 10 9 13 22 9 42 -4 16 -2
28 3 28 11 0 27 48 22 65 -1 6 -3 17 -4 25 -1 15 -52 88 -71 103 -5 4 -20 6
-33 4 -12 -3 -25 0 -28 5 -7 11 -55 32 -68 29 -4 -1 -13 2 -20 7 -17 14 -55
21 -58 11 -2 -4 -18 -1 -36 8 -28 14 -35 14 -42 3 -7 -11 -11 -11 -24 -1 -9 7
-22 11 -30 8 -8 -3 -18 4 -24 17 -10 22 -20 26 -69 27 -13 1 -21 5 -18 9 3 5
-9 12 -27 15 -18 4 -37 10 -43 13 -11 7 -17 9 -60 18 -16 4 -38 13 -47 22 -10
8 -26 12 -37 9 -11 -3 -22 0 -23 5 -2 5 -16 11 -31 11 -15 1 -27 5 -27 8 0 3
-26 14 -57 24 -32 10 -53 20 -47 22 6 2 59 -12 117 -32 58 -19 112 -35 119
-35 22 0 -48 38 -92 50 -24 6 -38 15 -34 22 4 7 -4 8 -24 3 -17 -3 -33 -2 -37
4 -3 7 0 8 9 5 9 -3 16 -2 16 3 0 5 13 8 30 5 19 -3 27 -9 23 -16 -3 -6 -2 -7
2 -3 13 11 15 37 3 37 -6 0 -4 7 3 17 13 15 14 14 17 -5 2 -12 11 -26 21 -32z
m-424 4 c39 -19 43 -23 20 -19 -43 8 -85 26 -85 36 0 13 9 11 65 -17z m449 11
c-4 -8 -10 -12 -15 -9 -14 8 -10 24 6 24 9 0 12 -6 9 -15z m-157 -1 c-3 -3
-12 -4 -19 -1 -8 3 -5 6 6 6 11 1 17 -2 13 -5z m-67 -25 c10 -6 4 -7 -15 -3
-16 4 -37 11 -45 15 -10 6 -4 7 15 3 17 -4 37 -11 45 -15z m-731 -110 c-16
-10 -23 -4 -14 10 3 6 11 8 17 5 6 -4 5 -9 -3 -15z m1265 -280 c77 -28 86 -34
64 -40 -14 -4 -47 -1 -74 6 -45 12 -52 11 -83 -8 -30 -18 -34 -18 -28 -4 4 11
1 17 -8 17 -9 0 -12 -6 -9 -15 4 -8 1 -15 -5 -15 -7 0 -11 -7 -9 -16 2 -9 -30
-46 -77 -89 -65 -59 -83 -71 -94 -62 -12 10 -13 8 -9 -10 4 -15 2 -23 -7 -23
-7 0 -16 -7 -19 -16 -5 -13 -9 -14 -22 -4 -12 11 -12 15 -2 21 7 5 8 9 2 9 -6
0 -14 -3 -18 -7 -10 -11 -48 -14 -42 -4 10 16 -5 41 -24 41 -36 0 -28 16 35
74 36 32 62 63 59 67 -3 5 0 9 6 9 7 0 9 -8 5 -21 -5 -14 -3 -19 3 -15 6 3 13
2 17 -4 3 -5 1 -10 -5 -10 -6 0 -8 -5 -5 -11 5 -6 13 -3 22 11 13 19 13 24 -1
45 -9 14 -13 25 -9 25 5 0 28 20 53 44 36 35 48 42 59 32 12 -9 14 -8 9 5 -4
9 -2 21 4 27 6 6 -14 21 -59 43 -80 39 -133 52 -133 33 0 -7 -9 -19 -20 -27
-11 -8 -17 -17 -14 -20 4 -4 -7 -14 -25 -24 -17 -10 -34 -26 -37 -36 -3 -9
-10 -15 -15 -12 -5 4 -9 1 -9 -5 0 -7 -26 -38 -58 -71 -56 -56 -60 -58 -75
-41 -21 23 -21 29 1 36 11 3 10 4 -5 3 -12 -1 -29 7 -38 18 -10 13 -14 15 -13
5 2 -8 10 -20 18 -27 13 -11 13 -14 0 -24 -13 -9 -12 -10 2 -5 20 6 34 -9 18
-19 -16 -10 -40 14 -33 32 4 10 2 14 -4 10 -6 -4 -16 0 -23 8 -7 8 -17 12 -24
8 -7 -4 -6 -1 1 9 7 8 10 18 6 22 -4 4 0 4 8 1 11 -4 26 5 43 25 14 17 34 32
44 33 10 0 25 8 32 16 13 13 12 14 -5 8 -16 -6 -14 -3 5 12 13 11 27 18 30 16
3 -2 7 6 7 18 3 32 24 66 45 73 10 3 18 12 18 20 0 9 5 12 11 8 7 -4 10 -1 7
7 -2 8 -25 25 -51 39 -26 14 -52 31 -59 38 -7 8 109 -47 257 -121 149 -74 310
-149 359 -168z m176 281 c18 -12 2 -12 -25 0 -13 6 -15 9 -5 9 8 0 22 -4 30
-9z m1200 -4 c0 -2 -7 -9 -15 -16 -13 -11 -14 -10 -9 4 5 14 24 23 24 12z
m-2650 -20 c0 -2 -8 -10 -17 -17 -16 -13 -17 -12 -4 4 13 16 21 21 21 13z
m-3350 -21 c0 -8 -7 -15 -15 -15 -8 0 -15 7 -15 15 0 8 7 15 15 15 8 0 15 -7
15 -15z m5795 -5 c7 -12 -2 -12 -30 0 -19 8 -19 9 2 9 12 1 25 -3 28 -9z m175
-10 c0 -5 -4 -10 -9 -10 -6 0 -13 5 -16 10 -3 6 1 10 9 10 9 0 16 -4 16 -10z
m-2899 -123 c-10 -9 -11 -8 -5 6 3 10 9 15 12 12 3 -3 0 -11 -7 -18z m2359 13
c0 -5 -2 -10 -4 -10 -3 0 -8 5 -11 10 -3 6 -1 10 4 10 6 0 11 -4 11 -10z m55
0 c7 -11 -11 -40 -25 -40 -4 0 -5 11 -2 25 5 26 16 32 27 15z m-150 -77 c-3
-32 -10 -60 -14 -63 -4 -3 -13 -23 -19 -45 l-11 -40 5 40 c4 22 7 47 8 55 3
22 30 110 33 110 2 0 1 -26 -2 -57z m-2069 -8 c17 -8 42 -19 55 -25 20 -9 16
-9 -21 -5 -24 3 -47 10 -50 14 -3 5 -24 18 -47 30 -81 41 -36 31 63 -14z
m2194 10 c0 -8 -4 -15 -10 -15 -5 0 -7 7 -4 15 4 8 8 15 10 15 2 0 4 -7 4 -15z
m548 -18 c3 -12 -3 -17 -20 -17 -17 0 -19 3 -9 9 8 5 10 14 6 21 -5 8 -3 11 6
8 8 -3 15 -12 17 -21z m-2493 -7 c16 -6 14 -8 -12 -7 -18 0 -30 4 -27 9 6 10
12 9 39 -2z m43 -15 c-3 -3 -9 2 -12 12 -6 14 -5 15 5 6 7 -7 10 -15 7 -18z
m-101 1 c0 -8 -8 -11 -19 -8 -10 2 -15 8 -12 13 8 14 31 11 31 -5z m1726 -13
c-7 -2 -19 -2 -25 0 -7 3 -2 5 12 5 14 0 19 -2 13 -5z m-1738 -13 c3 -6 -1 -7
-9 -4 -18 7 -21 14 -7 14 6 0 13 -4 16 -10z m140 0 c3 -6 -1 -7 -9 -4 -10 4
-16 1 -16 -7 0 -7 -3 -10 -6 -6 -7 7 4 27 16 27 5 0 12 -4 15 -10z m2640 -29
c55 -21 100 -43 100 -47 0 -5 -30 -10 -68 -12 -51 -2 -71 1 -83 13 -14 13 -14
15 3 16 13 0 14 2 4 6 -20 8 -61 45 -61 55 0 11 -8 13 105 -31z m-477 20 c12
-1 22 -6 22 -12 0 -7 -26 -9 -77 -5 -43 3 -84 5 -90 5 -7 1 -13 6 -13 11 0 7
25 9 68 6 37 -2 77 -5 90 -5z m-2298 -25 c0 -3 -4 -8 -10 -11 -5 -3 -10 -1
-10 4 0 6 5 11 10 11 6 0 10 -2 10 -4z m410 -17 c0 -6 -4 -7 -10 -4 -5 3 -10
11 -10 16 0 6 5 7 10 4 6 -3 10 -11 10 -16z m885 11 c4 -6 -8 -10 -29 -10 -20
0 -36 5 -36 10 0 6 13 10 29 10 17 0 33 -4 36 -10z m1049 -29 c-4 -17 -9 -30
-11 -27 -3 2 -2 19 2 36 4 17 9 30 11 27 2 -2 1 -18 -2 -36z m-1904 14 c7 -9
8 -15 2 -15 -5 0 -12 7 -16 15 -3 8 -4 15 -2 15 2 0 9 -7 16 -15z m915 5 c13
-5 14 -9 5 -9 -8 0 -24 4 -35 9 -13 5 -14 9 -5 9 8 0 24 -4 35 -9z m1321 -47
c-11 -11 -19 6 -11 24 8 17 8 17 12 0 3 -10 2 -21 -1 -24z m-396 17 c-9 -6
-10 -10 -3 -10 14 0 9 -36 -8 -56 -16 -20 -27 -9 -21 23 5 32 20 53 36 53 6 0
4 -5 -4 -10z m-447 -50 c-3 -12 -8 -19 -11 -16 -5 6 5 36 12 36 2 0 2 -9 -1
-20z m-563 -6 c11 -13 9 -20 -16 -45 l-30 -30 -19 21 c-17 18 -17 20 -1 20 9
0 15 4 11 9 -5 10 21 41 34 41 5 0 14 -7 21 -16z m940 6 c0 -13 -70 -13 -90 0
-11 7 0 10 38 10 28 0 52 -4 52 -10z m-144 -28 c-18 -16 -18 -16 -6 6 6 13 14
21 18 18 3 -4 -2 -14 -12 -24z m144 -2 c0 -5 -25 -10 -55 -10 -30 0 -55 5 -55
10 0 6 25 10 55 10 30 0 55 -4 55 -10z m589 -7 c21 -18 21 -18 -24 -20 -31 -1
-45 2 -45 11 0 31 37 35 69 9z m-982 -15 c-3 -8 -6 -5 -6 6 -1 11 2 17 5 13 3
-3 4 -12 1 -19z m678 12 c-3 -5 -12 -10 -18 -10 -7 0 -6 4 3 10 19 12 23 12
15 0z m-300 -20 c4 -6 -15 -10 -49 -10 -31 0 -56 5 -56 10 0 6 22 10 49 10 28
0 53 -4 56 -10z m-850 -30 c37 -16 78 -30 92 -30 18 0 24 -5 21 -17 -6 -29
-82 -20 -151 17 -47 26 -56 35 -46 46 14 17 6 19 84 -16z m1776 9 c22 -11 92
-85 98 -103 8 -22 57 -72 68 -69 15 5 71 -44 89 -80 13 -25 15 -51 10 -151 -9
-158 -11 -175 -25 -189 -15 -15 -14 -47 1 -47 6 0 8 -3 5 -7 -10 -9 -47 32
-47 52 0 8 -9 24 -20 35 -11 11 -20 22 -20 25 0 3 0 11 0 18 0 6 -16 23 -35
36 -19 13 -37 32 -41 43 -5 16 -10 10 -30 -32 -29 -62 -29 -66 -6 -72 24 -7
22 -34 -8 -90 -16 -31 -21 -51 -15 -64 8 -18 9 -18 12 4 3 12 9 22 14 22 6 0
8 4 5 9 -10 15 6 42 21 37 8 -3 11 -1 8 4 -3 6 -2 10 3 10 11 0 25 36 23 60 0
10 1 11 5 2 3 -6 10 -10 15 -6 15 9 10 -14 -11 -48 -11 -18 -20 -39 -20 -46 0
-7 -16 -44 -35 -83 -39 -80 -42 -97 -18 -114 14 -11 13 -13 -11 -19 -19 -5
-26 -12 -22 -21 3 -9 0 -15 -8 -15 -8 0 -17 -7 -20 -16 -3 -8 -10 -12 -16 -9
-6 4 -8 10 -5 15 3 4 -1 11 -7 14 -7 3 -3 3 10 0 12 -3 22 -2 22 3 -1 13 -26
43 -32 37 -8 -7 -68 55 -78 80 -9 25 -4 39 52 176 40 97 46 105 73 109 30 4
30 4 5 10 -18 5 -25 14 -25 31 0 21 5 25 32 25 27 0 30 2 21 18 -5 10 -12 16
-16 13 -3 -4 -17 4 -30 16 -20 18 -24 19 -19 6 4 -10 3 -18 -2 -18 -5 0 -14
21 -20 46 -9 36 -24 57 -62 92 -27 24 -49 49 -48 56 6 52 -2 72 -35 84 -18 7
-46 24 -61 38 -23 21 -25 28 -14 35 12 8 11 12 -3 23 -16 12 -15 13 12 14 16
0 32 -3 35 -8 3 -5 12 -7 19 -4 7 3 21 -2 30 -12 16 -15 18 -15 29 1 8 10 35
20 67 25 30 4 56 8 58 9 2 0 12 -4 23 -10z m-2005 -24 c1 -14 -2 -25 -7 -25
-4 0 -6 -7 -3 -15 4 -10 0 -15 -11 -15 -13 0 -16 -6 -12 -22 3 -11 -1 -37 -10
-57 -9 -20 -15 -39 -15 -43 3 -14 -15 -9 -63 19 -38 21 -44 28 -31 33 10 3 17
10 16 15 -1 5 3 11 9 13 6 2 11 -3 11 -12 0 -9 7 -16 15 -16 9 0 15 9 15 25 0
14 5 25 12 25 9 0 9 3 0 12 -8 8 -1 20 31 49 23 21 42 38 42 39 0 0 1 -11 1
-25z m298 19 c17 -6 22 -24 8 -24 -5 0 -17 7 -28 15 -19 15 -8 20 20 9z m636
-4 c0 -5 -5 -10 -11 -10 -5 0 -7 5 -4 10 3 6 8 10 11 10 2 0 4 -4 4 -10z m136
-2 c3 -4 -20 -8 -51 -8 -36 0 -54 4 -50 10 8 12 94 10 101 -2z m222 -15 c-10
-2 -26 -2 -35 0 -10 3 -2 5 17 5 19 0 27 -2 18 -5z m-257 -13 c17 0 28 -3 25
-8 -2 -4 -25 -6 -50 -4 -26 2 -43 8 -40 14 3 5 13 7 21 4 8 -3 28 -6 44 -6z
m26 -36 c-9 -9 -98 -11 -103 -2 -3 4 21 8 52 8 32 0 55 -3 51 -6z m-12 -34
c-8 -13 -75 -13 -95 0 -11 7 2 10 43 10 36 0 56 -4 52 -10z m-5 -29 c0 -32
-14 -41 -61 -41 -46 0 -49 2 -49 25 0 24 3 25 55 25 30 0 55 -4 55 -9z m764
-7 c9 -23 3 -26 -28 -14 -15 5 -24 14 -21 20 10 16 42 12 49 -6z m-1164 -54
c0 -5 -4 -10 -10 -10 -5 0 -10 5 -10 10 0 6 5 10 10 10 6 0 10 -4 10 -10z
m640 0 c0 -5 -7 -7 -15 -4 -8 4 -15 8 -15 10 0 2 7 4 15 4 8 0 15 -4 15 -10z
m-180 -34 c0 -3 -4 -8 -10 -11 -5 -3 -10 -1 -10 4 0 6 5 11 10 11 6 0 10 -2
10 -4z m695 -36 c3 -5 1 -10 -4 -10 -6 0 -11 5 -11 10 0 6 2 10 4 10 3 0 8 -4
11 -10z m-260 -30 c-3 -5 -17 -10 -30 -10 -13 0 -27 5 -30 10 -4 6 8 10 30 10
22 0 34 -4 30 -10z m-159 -17 c-11 -12 -132 -16 -193 -7 -54 8 -50 9 67 14
130 5 138 5 126 -7z m67 10 c-7 -2 -21 -2 -30 0 -10 3 -4 5 12 5 17 0 24 -2
18 -5z m21 -53 c-3 -8 -8 -28 -10 -45 -2 -16 -9 -43 -15 -58 -9 -21 -9 -31 0
-40 16 -16 14 -24 -9 -30 -11 -3 -23 -13 -27 -24 -3 -10 -12 -22 -20 -26 -7
-4 -13 -16 -13 -25 1 -16 1 -16 11 1 20 33 27 16 14 -33 -7 -27 -11 -50 -8
-50 3 0 1 -6 -4 -12 -22 -27 -42 -185 -23 -173 6 3 10 15 10 25 0 10 5 22 10
25 6 3 7 17 4 31 -3 13 -2 24 3 24 5 0 10 6 11 13 0 6 6 32 13 57 6 25 12 52
13 60 2 8 13 35 26 60 13 25 23 48 22 53 -1 4 3 7 8 7 14 0 13 -9 -11 -86 -12
-37 -23 -79 -26 -93 -2 -13 -8 -32 -14 -43 -5 -10 -7 -18 -5 -18 3 0 1 -11 -4
-25 -9 -24 -19 -118 -24 -222 -1 -36 2 -54 11 -57 10 -4 12 -20 8 -58 -11 -97
-26 -159 -38 -155 -18 6 -9 157 11 180 14 15 14 17 -2 17 -9 0 -15 4 -11 9 3
5 1 12 -4 16 -10 5 -22 -31 -36 -105 -19 -102 -31 -89 -15 17 19 123 19 125
35 119 11 -4 15 2 15 25 0 18 -4 28 -10 24 -6 -4 -7 -11 -4 -17 4 -7 2 -8 -4
-4 -13 8 -5 36 11 36 7 0 7 4 -1 12 -6 6 -14 10 -16 7 -10 -9 -35 -122 -30
-130 3 -5 1 -9 -4 -9 -5 0 -7 -11 -4 -25 3 -19 0 -25 -14 -25 -16 0 -17 2 -4
10 13 9 13 11 0 20 -20 13 -63 13 -55 0 3 -5 1 -18 -4 -27 -8 -15 -11 -15 -12
-3 -1 8 -1 19 0 24 1 4 -11 6 -26 3 -15 -4 -23 -4 -16 -1 7 3 9 12 6 21 -5 12
-3 14 8 8 11 -7 12 -6 3 6 -7 8 -8 23 -4 34 10 27 2 45 -17 38 -12 -5 -12 -8
-1 -15 9 -7 5 -8 -12 -4 -23 5 -23 4 -7 -9 12 -8 14 -15 7 -20 -5 -3 -7 -11
-4 -17 4 -7 2 -8 -5 -4 -6 4 -9 12 -6 17 10 15 -12 10 -25 -6 -10 -12 -10 -15
1 -15 12 0 12 -2 0 -9 -11 -7 -9 -10 8 -16 25 -8 27 -18 6 -38 -9 -10 -11 -17
-4 -19 6 -2 1 -14 -10 -27 -25 -29 -26 -32 -6 -25 13 5 14 2 5 -22 -6 -15 -19
-34 -29 -43 -10 -9 -16 -21 -14 -28 2 -6 -1 -14 -6 -18 -7 -4 -8 0 -4 11 5 14
2 16 -14 12 -11 -3 -28 1 -38 8 -18 13 -18 14 2 14 21 0 35 13 39 35 18 93 18
98 -4 93 -12 -3 -23 -1 -24 4 -3 7 -11 7 -25 -1 -12 -6 -28 -11 -35 -10 -7 0
1 7 17 14 17 8 23 14 15 15 -13 0 -13 1 0 10 13 9 13 10 0 10 -9 0 -11 3 -5 8
6 4 10 17 9 30 -1 16 4 22 18 22 11 0 17 4 13 10 -3 5 -12 7 -19 4 -8 -3 -17
0 -22 7 -4 8 -3 10 4 5 7 -4 12 -2 12 3 0 6 8 11 18 11 14 0 15 2 2 10 -13 8
-12 10 2 10 19 0 20 23 4 49 -6 9 -5 12 2 7 6 -3 13 -2 17 4 3 5 -1 10 -9 10
-21 0 -21 16 -1 24 9 3 15 11 14 18 -3 29 2 37 23 33 16 -3 19 -2 10 7 -8 8
-7 14 3 24 19 19 26 17 19 -3 -4 -11 5 -5 21 12 14 17 23 23 19 15 -12 -22
-14 -60 -3 -60 6 0 8 -4 5 -9 -4 -5 -1 -11 5 -13 7 -2 1 -21 -15 -50 -31 -55
-33 -67 -8 -45 10 10 22 14 25 10 4 -3 15 3 24 15 41 48 49 58 52 67 2 6 5 15
7 20 2 6 9 24 15 40 18 44 20 63 9 70 -6 4 -8 10 -5 15 3 5 1 11 -5 15 -5 3
-10 1 -10 -4 0 -6 -7 -11 -15 -11 -13 0 -14 4 -5 20 9 16 8 22 -5 27 -13 5
-14 7 -3 14 10 7 9 9 -4 9 -10 0 -18 5 -18 11 0 6 7 8 18 4 12 -4 10 0 -6 16
-25 22 -21 23 -84 -9 -3 -2 -4 7 -1 19 4 16 2 20 -8 17 -8 -3 -15 -10 -15 -16
-3 -22 -4 -23 -16 -15 -7 4 -16 8 -20 8 -21 0 -16 15 7 21 17 4 23 9 15 14 -8
5 -7 9 4 13 9 4 16 2 16 -3 0 -6 5 -10 11 -10 5 0 8 4 4 9 -3 5 -1 13 5 16 8
5 7 11 -1 21 -9 11 -9 14 0 14 7 0 10 3 8 8 -7 11 15 27 43 30 13 1 27 8 31
14 4 7 20 8 39 4 21 -4 39 -1 48 6 12 11 16 10 20 -1 4 -11 6 -11 14 0 6 10 8
2 6 -23 -2 -20 0 -34 4 -32 4 3 8 11 8 19 0 7 6 20 13 27 8 7 20 31 27 53 7
22 20 47 29 56 21 21 54 21 45 -1z m56 -63 c-6 -30 -17 -63 -25 -73 -13 -17
-14 -16 -9 16 6 34 20 90 31 120 12 33 14 -11 3 -63z m-4436 27 c9 -3 16 -10
16 -15 0 -6 -8 -6 -18 0 -12 6 -53 7 -113 1 -146 -13 -313 -19 -259 -9 113 22
341 36 374 23z m-469 -44 c-16 -4 -41 -8 -55 -8 -22 0 -22 1 5 8 17 4 41 8 55
8 22 0 22 -1 -5 -8z m325 -4 c0 -3 -17 -31 -37 -63 -21 -32 -45 -72 -53 -88
-9 -16 -25 -31 -35 -33 -20 -4 -20 -4 0 12 19 15 19 16 1 9 -13 -4 -17 -3 -12
5 4 7 2 12 -4 12 -7 0 -5 7 4 16 9 8 16 21 16 27 0 7 -4 6 -10 -3 -7 -10 -10
-11 -10 -2 0 7 7 15 15 18 9 4 14 14 13 23 -2 9 3 15 10 14 6 -2 12 1 12 7 0
17 43 50 67 50 13 0 23 -2 23 -4z m-410 -10 c0 -2 -13 -6 -30 -8 -16 -3 -30
-1 -30 4 0 4 14 8 30 8 17 0 30 -2 30 -4z m667 -58 c96 -103 244 -323 333
-496 32 -61 40 -88 40 -129 0 -42 -3 -53 -16 -53 -9 0 -14 -6 -11 -13 7 -18
-14 -32 -48 -31 -57 2 -59 3 -45 19 7 8 8 15 3 15 -15 0 -33 58 -19 64 6 2 3
5 -8 5 -15 1 -16 4 -6 16 10 12 7 15 -14 21 -14 3 -24 9 -22 13 2 3 -4 24 -14
46 -11 22 -19 45 -20 52 0 6 -5 24 -11 40 -7 15 -13 35 -14 43 -15 84 -42 166
-62 188 -7 7 -13 20 -13 27 0 8 -5 26 -12 40 -13 28 -41 35 -31 8 3 -11 -2 -7
-13 7 -10 14 -17 34 -16 45 2 16 1 17 -7 5 -9 -13 -10 -13 -15 0 -6 20 -26
107 -26 114 0 16 22 1 67 -46z m4728 22 c-4 -6 -11 -7 -17 -4 -7 5 -9 0 -6
-14 4 -15 2 -19 -8 -15 -15 5 -19 25 -7 36 10 11 45 8 38 -3z m-5382 -55 c-3
-9 -8 -14 -10 -11 -3 3 -2 9 2 15 9 16 15 13 8 -4z m5357 1 c0 -2 -3 -11 -6
-20 -9 -23 -24 -20 -24 4 0 11 7 20 15 20 8 0 15 -2 15 -4z m-859 -49 c-6 -8
-8 -16 -5 -20 9 -9 12 -57 3 -57 -5 0 -9 -12 -9 -27 l1 -28 13 30 c7 17 11 35
9 40 -2 6 5 11 16 11 18 0 19 -2 5 -17 -8 -9 -16 -27 -17 -39 -1 -15 -10 -23
-29 -27 -15 -3 -25 -9 -23 -14 3 -4 1 -10 -4 -13 -5 -4 -17 -31 -26 -62 -9
-30 -20 -52 -25 -49 -6 3 -5 16 0 31 6 14 8 29 5 34 -3 5 0 12 6 15 5 4 8 13
5 20 -2 7 2 16 11 19 8 4 13 13 9 21 -3 8 0 15 7 15 7 0 3 8 -8 17 -15 12 -16
14 -3 10 17 -6 19 -3 33 58 4 16 12 33 18 37 18 11 21 10 8 -5z m-61 -26 c-8
-5 -26 -11 -40 -15 -21 -5 -20 -3 5 9 32 15 60 20 35 6z m-99 -37 c-18 -13
-20 -18 -10 -25 11 -7 10 -9 -4 -9 -12 0 -17 6 -15 18 3 20 17 32 38 32 9 0 6
-6 -9 -16z m-4066 -2 c-6 -4 -10 -23 -10 -42 1 -19 -2 -42 -7 -51 -14 -31 -67
-244 -71 -289 -2 -25 2 -60 10 -79 13 -31 46 -262 38 -269 -7 -8 -24 37 -29
76 -3 23 -7 45 -9 50 -3 4 -6 39 -8 77 -2 39 -7 75 -12 82 -5 7 -6 17 -3 22 4
5 -2 16 -12 23 -10 7 -24 23 -30 34 -9 18 -8 26 8 47 22 28 29 60 8 39 -18
-18 -37 -14 -35 8 1 11 5 20 9 20 4 0 4 8 1 17 -5 12 -2 15 10 10 9 -3 17 -2
17 2 0 5 -8 12 -17 15 -11 5 -13 10 -7 14 6 4 17 18 24 31 11 21 10 23 -4 18
-15 -6 -15 -4 1 24 10 17 27 39 38 48 11 9 21 23 23 31 2 8 10 20 17 26 8 6
13 13 10 15 -2 3 8 6 23 7 15 1 22 -2 17 -6z m2405 -36 c0 -2 -7 -9 -15 -16
-13 -11 -14 -10 -9 4 5 14 24 23 24 12z m1496 -5 c-3 -5 -15 -11 -26 -14 -17
-4 -19 -3 -9 9 12 15 44 20 35 5z m-4816 -10 c0 -5 -6 -12 -12 -14 -7 -3 -3
-6 10 -6 12 -1 22 4 22 11 0 6 3 9 6 6 3 -4 -2 -27 -10 -52 -9 -26 -16 -60
-16 -76 0 -17 -5 -30 -11 -30 -6 0 -9 -6 -6 -14 3 -8 -1 -17 -9 -20 -8 -3 -14
-17 -14 -31 0 -21 4 -25 23 -22 26 5 60 18 67 27 9 11 120 38 120 29 0 -5 -7
-9 -15 -9 -8 0 -15 -5 -15 -10 0 -6 -21 -33 -47 -60 -33 -35 -49 -46 -55 -37
-5 8 -8 7 -8 -6 0 -10 -4 -15 -10 -12 -5 3 -10 -3 -10 -14 0 -11 -4 -23 -10
-26 -9 -6 -31 -50 -43 -87 -3 -9 1 -30 9 -46 10 -22 20 -29 38 -27 18 2 23 -1
19 -11 -3 -8 -15 -13 -27 -12 -11 2 -21 0 -21 -4 0 -12 -53 -48 -67 -46 -7 2
-19 9 -26 16 -12 10 -16 10 -26 -2 -6 -8 -26 -17 -45 -21 -33 -7 -34 -6 -18 9
19 19 23 31 7 21 -5 -3 -10 1 -10 9 0 8 -4 17 -9 20 -4 3 -6 -6 -3 -19 2 -15
0 -25 -7 -25 -6 0 -11 -7 -11 -16 0 -12 -6 -15 -25 -10 -20 5 -26 2 -31 -19
-6 -23 -24 -36 -24 -17 0 11 -61 2 -78 -11 -7 -5 -15 -7 -18 -4 -3 3 -15 -4
-25 -14 -11 -11 -30 -19 -42 -18 -36 3 -57 -11 -58 -40 0 -23 -1 -24 -9 -6 -5
11 -9 31 -9 44 -1 37 105 296 137 334 8 9 12 17 8 17 -8 0 42 91 84 154 17 25
40 48 50 51 11 4 17 11 14 17 -4 6 -3 8 3 5 5 -3 22 5 38 19 15 13 34 24 42
24 7 0 13 4 13 10 0 5 8 7 18 3 9 -3 14 -3 10 2 -8 8 53 43 86 50 11 3 24 9
30 15 12 12 26 13 26 1z m4910 -21 c-6 -20 -5 -30 2 -30 6 0 3 -9 -7 -20 -20
-22 -37 -18 -29 8 16 48 27 72 35 72 4 0 4 -13 -1 -30z m97 24 c-3 -3 -12 -4
-19 -1 -8 3 -5 6 6 6 11 1 17 -2 13 -5z m49 -13 c-4 -6 -14 -7 -23 -4 -15 6
-14 7 3 13 22 9 29 6 20 -9z m-3978 -42 c11 0 12 -3 5 -6 -7 -2 -13 -11 -13
-18 0 -7 6 -15 13 -18 6 -2 9 -8 5 -12 -4 -4 -15 -4 -25 0 -19 8 -29 11 -53
14 -10 1 -11 4 -4 9 19 13 25 44 12 60 -11 13 -10 14 10 8 15 -5 22 -3 23 6 1
7 4 1 6 -14 3 -18 11 -28 21 -29z m2822 32 c0 -17 -18 -21 -24 -6 -3 9 0 15 9
15 8 0 15 -4 15 -9z m-3532 -24 c13 -13 26 -38 31 -55 8 -25 6 -32 -7 -35 -12
-3 -11 -5 4 -6 19 -1 21 -6 19 -37 -1 -20 -8 -40 -15 -44 -7 -4 -12 -19 -12
-34 0 -14 -4 -24 -8 -21 -13 8 -30 -44 -24 -75 4 -16 2 -30 -3 -30 -5 0 -17
-13 -26 -30 -10 -16 -15 -30 -11 -30 3 0 1 -7 -6 -15 -11 -13 -10 -14 5 -9 13
5 16 4 11 -4 -4 -7 -17 -12 -30 -12 -12 0 -31 -7 -42 -15 -24 -18 -37 -19 -29
-2 4 6 -3 1 -15 -13 -12 -14 -19 -19 -15 -11 4 7 2 17 -6 22 -11 7 -9 9 6 10
l20 0 -20 9 c-20 9 -20 9 0 9 12 1 28 14 38 31 10 17 25 30 33 30 8 0 14 8 14
18 0 10 8 27 19 38 16 18 17 23 5 39 -8 10 -14 13 -14 7 0 -7 -4 -12 -8 -12
-4 0 -6 16 -4 35 2 19 -1 42 -7 49 -8 9 -8 16 -2 20 6 4 8 13 5 21 -5 13 12
32 61 69 18 14 18 15 3 16 -10 0 -18 5 -18 10 0 6 -7 10 -15 10 -19 0 -21 56
-2 63 26 11 44 6 65 -16z m4088 -18 c-9 -22 -15 -27 -15 -16 -1 21 18 61 25
54 3 -3 -2 -20 -10 -38z m574 37 c0 -3 -4 -8 -10 -11 -5 -3 -10 -1 -10 4 0 6
5 11 10 11 6 0 10 -2 10 -4z m-39 -69 c-10 -9 -11 -8 -5 6 3 10 9 15 12 12 3
-3 0 -11 -7 -18z m-332 -7 c-25 -13 -42 -32 -53 -60 -9 -23 -21 -38 -26 -35
-6 4 -3 16 6 31 9 13 14 27 11 31 -7 6 71 52 88 52 6 0 -6 -9 -26 -19z m-3611
-41 c2 -26 -13 -57 -23 -47 -4 3 -1 17 6 29 9 17 9 24 0 27 -6 2 -11 8 -11 14
0 21 25 0 28 -23z m3397 -16 c-13 -93 -38 -175 -59 -197 -15 -15 -21 -32 -20
-58 1 -28 -1 -35 -12 -31 -22 8 -14 70 13 99 12 13 19 24 16 24 -3 0 1 8 8 17
10 11 10 14 2 9 -8 -4 -13 -1 -13 9 0 9 5 13 11 9 8 -4 8 0 0 15 -7 11 -8 21
-3 21 5 0 8 16 7 35 0 19 2 35 6 35 4 0 12 14 18 30 17 49 34 38 26 -17z m432
25 c-3 -8 -6 -5 -6 6 -1 11 2 17 5 13 3 -3 4 -12 1 -19z m-1454 -3 c-3 -9 -8
-14 -10 -11 -3 3 -2 9 2 15 9 16 15 13 8 -4z m2767 -49 c0 -2 -8 -10 -17 -17
-16 -13 -17 -12 -4 4 13 16 21 21 21 13z m-5990 -26 c-8 -5 -22 -9 -30 -9 -10
0 -8 3 5 9 27 12 43 12 25 0z m904 2 c2 -4 -5 -9 -17 -9 -17 -2 -19 0 -7 7 18
12 18 12 24 2z m1012 -11 c-3 -5 1 -11 9 -15 8 -3 15 -11 15 -17 0 -7 -8 -5
-20 6 -22 20 -26 35 -9 35 5 0 8 -4 5 -9z m-1866 -56 c-5 -11 -14 -48 -21 -82
-12 -67 -15 -68 -98 -78 -9 -1 -23 -4 -31 -7 -8 -4 -30 -9 -47 -12 -25 -4 -33
-2 -33 9 0 19 37 39 74 39 16 1 31 7 33 14 3 7 -1 10 -11 6 -12 -5 -16 0 -16
17 l-1 24 -15 -25 c-14 -24 -14 -23 -8 20 7 50 15 63 41 65 10 0 24 5 31 9 21
13 65 24 88 23 18 -1 20 -5 14 -22z m4800 -20 c0 -5 -5 -3 -10 5 -5 8 -10 10
-10 4 0 -6 3 -14 7 -18 4 -3 12 -22 19 -41 10 -31 9 -38 -7 -59 -21 -27 -25
-41 -7 -30 7 4 8 3 4 -4 -4 -7 -24 -11 -44 -11 l-37 1 30 8 c17 4 26 8 21 9
-5 0 -3 8 4 16 8 10 10 19 4 25 -5 5 -7 39 -6 75 3 59 5 64 18 48 7 -10 13
-22 14 -28z m-2820 -53 c0 -7 -5 -10 -10 -7 -6 4 -8 10 -5 15 3 5 -3 14 -14
19 -24 13 -51 40 -51 51 0 4 18 -9 40 -29 22 -20 40 -42 40 -49z m-109 61 c8
-10 31 -37 52 -59 34 -38 36 -44 26 -68 -16 -34 -25 -33 -62 7 -16 17 -34 31
-39 29 -5 -1 -7 1 -4 6 3 5 -6 24 -19 42 -14 19 -25 35 -25 37 0 4 40 21 50
22 3 1 12 -7 21 -16z m1419 -4 c-7 -11 -14 -19 -16 -16 -7 7 7 37 17 37 6 0 5
-9 -1 -21z m-3160 -33 c0 -3 -4 -8 -10 -11 -5 -3 -10 -1 -10 4 0 6 5 11 10 11
6 0 10 -2 10 -4z m3230 -90 c0 -3 -4 -8 -10 -11 -5 -3 -10 -1 -10 4 0 6 5 11
10 11 6 0 10 -2 10 -4z m40 -26 c-6 -12 -14 -19 -17 -17 -2 3 1 15 7 27 6 12
14 19 17 17 2 -3 -1 -15 -7 -27z m1650 20 c0 -5 -8 -10 -17 -10 -15 0 -16 2
-3 10 19 12 20 12 20 0z m3957 -16 c-3 -3 -12 -4 -19 -1 -8 3 -5 6 6 6 11 1
17 -2 13 -5z m-4325 -36 c-5 -21 -6 -21 -12 -2 -8 21 -3 37 10 29 4 -3 6 -15
2 -27z m192 -22 c-3 -15 -8 -25 -11 -23 -2 3 -1 17 3 31 3 15 8 25 11 23 2 -3
1 -17 -3 -31z m147 10 c5 3 9 0 9 -6 0 -15 -23 -7 -26 8 -1 7 0 8 3 2 2 -5 9
-8 14 -4z m-5261 -6 c0 -5 -4 -10 -10 -10 -5 0 -10 5 -10 10 0 6 5 10 10 10 6
0 10 -4 10 -10z m4982 -12 c-9 -9 -15 -9 -24 0 -9 9 -7 12 12 12 19 0 21 -3
12 -12z m693 -6 c-3 -3 -11 0 -18 7 -9 10 -8 11 6 5 10 -3 15 -9 12 -12z
m-5600 -12 c-3 -5 -10 -10 -16 -10 -5 0 -9 5 -9 10 0 6 7 10 16 10 8 0 12 -4
9 -10z m4508 -7 c-7 -2 -21 -2 -30 0 -10 3 -4 5 12 5 17 0 24 -2 18 -5z m-813
-37 c0 -3 -4 -8 -10 -11 -5 -3 -10 -1 -10 4 0 6 5 11 10 11 6 0 10 -2 10 -4z
m795 -6 c3 -5 -1 -10 -10 -10 -9 0 -13 5 -10 10 3 6 8 10 10 10 2 0 7 -4 10
-10z m1158 -1 c20 -5 37 -14 37 -18 0 -5 10 -12 23 -16 18 -6 19 -8 5 -12 -9
-2 -27 1 -39 7 -17 10 -20 9 -14 -1 6 -9 3 -10 -11 -5 -30 12 -36 12 -41 0 -2
-6 3 -14 12 -18 9 -3 13 -2 10 4 -10 16 5 11 32 -10 19 -15 21 -20 9 -20 -9 0
-16 -4 -16 -10 0 -15 46 -12 59 3 6 8 8 16 5 19 -3 3 -1 9 5 13 7 4 11 -3 11
-18 0 -19 7 -26 28 -30 15 -3 32 -14 39 -25 11 -18 8 -19 -38 -14 -41 4 -49 2
-49 -12 0 -9 2 -16 4 -16 2 0 12 -3 22 -7 12 -4 15 -3 10 6 -6 10 -3 9 13 0
14 -10 17 -15 8 -21 -18 -11 -69 -10 -62 2 3 6 -1 10 -9 10 -9 0 -16 -7 -16
-15 0 -8 -7 -15 -15 -15 -8 0 -12 6 -9 13 3 8 -10 17 -38 24 -37 10 -46 9 -63
-6 -23 -21 -69 -35 -59 -19 5 7 -3 9 -20 6 -14 -3 -29 -1 -32 3 -3 5 1 9 9 9
7 0 14 7 14 15 0 8 -4 12 -8 9 -4 -2 -10 0 -13 5 -3 4 22 14 57 20 98 19 137
31 137 42 0 7 -10 9 -26 5 -21 -6 -25 -4 -21 8 9 24 -8 19 -26 -6 -19 -29 -33
-17 -16 14 11 21 11 22 -4 10 -13 -11 -21 -11 -46 2 -16 9 -37 16 -46 16 -8 0
-15 5 -15 10 0 10 20 15 54 11 10 0 24 5 30 13 6 8 25 17 41 19 17 2 32 5 35
5 3 1 22 -3 43 -9z m-2849 -18 c3 -4 -6 -6 -19 -3 -14 2 -25 6 -25 8 0 8 39 4
44 -5z m1696 -37 c0 -2 -12 -4 -26 -4 -14 0 -23 4 -20 9 6 8 46 4 46 -5z
m-1935 -24 c3 -6 -4 -9 -19 -8 -13 1 -22 6 -20 10 7 11 32 10 39 -2z m434 -16
c14 -12 -19 -1 -35 12 -18 14 -18 14 6 3 14 -6 27 -13 29 -15z m-500 0 c12
-11 -8 -10 -39 2 l-35 14 35 -6 c19 -4 37 -8 39 -10z m3030 -10 c2 -2 -12 -4
-32 -4 -20 0 -38 4 -42 9 -5 9 64 4 74 -5z m-3089 -4 c8 -5 11 -10 5 -10 -5 0
-17 5 -25 10 -8 5 -10 10 -5 10 6 0 17 -5 25 -10z m660 -15 c-14 -8 -29 -14
-35 -14 -5 0 1 6 15 14 14 8 30 14 35 14 6 0 -1 -6 -15 -14z m-673 -18 c15 -8
37 -24 47 -36 11 -12 27 -21 37 -21 10 0 23 -9 29 -20 6 -11 15 -20 21 -20 6
0 7 5 3 11 -4 8 0 8 15 0 24 -13 28 -23 6 -15 -21 8 -19 -9 6 -51 12 -20 19
-39 15 -42 -3 -3 1 -11 10 -18 9 -6 14 -20 12 -31 -2 -14 -12 -5 -36 38 -19
32 -65 89 -104 127 -78 77 -132 99 -211 87 -31 -5 -38 -4 -27 4 20 15 141 5
177 -13z m1391 -2 c-6 -13 -15 -22 -19 -19 -11 6 8 44 21 44 6 0 5 -10 -2 -25z
m-3008 0 c0 -9 -6 -12 -15 -9 -8 4 -12 10 -9 15 8 14 24 10 24 -6z m2965 5
c-3 -5 -11 -10 -16 -10 -6 0 -7 5 -4 10 3 6 11 10 16 10 6 0 7 -4 4 -10z
m-1245 -26 c0 -2 -9 0 -20 6 -11 6 -20 13 -20 16 0 2 9 0 20 -6 11 -6 20 -13
20 -16z m1180 -4 c18 -12 2 -12 -25 0 -13 6 -15 9 -5 9 8 0 22 -4 30 -9z
m-2887 -57 c4 -26 9 -59 12 -73 16 -75 18 -103 6 -96 -7 5 -10 14 -7 21 2 7
-1 18 -7 24 -6 6 -8 11 -5 11 3 0 -1 26 -8 58 -16 65 -18 116 -5 108 4 -3 11
-27 14 -53z m1856 27 c24 -10 25 -30 2 -30 -12 0 -20 4 -18 9 1 4 -9 18 -23
30 l-25 22 25 -12 c14 -7 31 -15 39 -19z m1261 8 c0 -6 -6 -5 -15 2 -8 7 -15
14 -15 16 0 2 7 1 15 -2 8 -4 15 -11 15 -16z m1920 6 c0 -8 -19 -13 -24 -6 -3
5 1 9 9 9 8 0 15 -2 15 -3z m3695 -14 c-3 -5 -14 -10 -23 -9 -14 0 -13 2 3 9
27 11 27 11 20 0z m-3921 -20 c13 -5 1 -9 -39 -14 -32 -3 -60 -4 -63 -1 -3 3
4 5 16 5 15 0 20 4 15 16 -4 12 0 14 23 8 16 -4 38 -10 48 -14z m216 0 c0 -5
-5 -10 -11 -10 -5 0 -7 5 -4 10 3 6 8 10 11 10 2 0 4 -4 4 -10z m3765 0 c-3
-5 -10 -10 -16 -10 -5 0 -9 5 -9 10 0 6 7 10 16 10 8 0 12 -4 9 -10z m-5615
-10 c-8 -5 -24 -10 -35 -10 -17 -1 -18 -2 -4 -10 17 -10 59 -2 59 11 0 12 37
11 45 -1 3 -5 -4 -11 -17 -11 -19 -1 -20 -2 -4 -6 15 -4 16 -7 5 -13 -7 -5
-21 -4 -31 1 -12 6 -25 6 -38 -1 -24 -13 -25 -26 -6 -46 18 -17 30 -18 20 -1
-6 10 -4 10 7 0 7 -7 20 -13 28 -13 11 0 10 4 -4 20 -10 11 -16 22 -13 25 3 3
13 -4 23 -15 10 -11 25 -20 34 -20 14 0 14 -2 1 -10 -8 -5 -36 -10 -62 -10
-38 0 -48 4 -48 16 0 10 -5 14 -15 10 -8 -3 -22 -9 -30 -12 -13 -5 -14 -2 -5
21 13 34 13 35 -6 28 -8 -3 -13 -12 -10 -19 3 -9 0 -11 -12 -7 -14 6 -15 4 -4
-9 11 -13 8 -15 -20 -12 -18 2 -46 8 -63 13 -16 6 -47 8 -68 6 -26 -2 -40 1
-44 11 -3 8 -9 12 -13 9 -5 -3 -11 -1 -15 5 -3 5 2 10 12 10 10 0 36 3 57 7
31 5 37 3 31 -7 -6 -10 -4 -12 9 -7 18 7 74 -17 89 -37 5 -6 6 1 3 17 -4 17
-2 27 5 27 6 0 9 7 5 15 -3 8 -2 15 2 16 4 1 29 3 56 5 27 2 52 6 54 9 3 3 12
5 21 5 14 0 14 -2 1 -10z m1775 0 c3 -5 0 -10 -7 -10 -10 0 -9 -3 2 -9 16 -11
33 -4 25 9 -11 17 24 18 40 0 16 -17 14 -18 -25 -25 -25 -4 -43 -13 -46 -23
-9 -29 -20 -46 -33 -50 -10 -3 -10 0 -2 17 10 17 9 21 -5 21 -10 0 -14 -5 -10
-15 7 -19 -4 -19 -32 1 -20 14 -24 13 -58 -12 l-35 -27 6 25 c6 22 3 25 -17
24 -13 -1 -27 1 -33 5 -5 4 -19 9 -30 13 -11 3 1 3 28 0 34 -4 47 -2 45 7 -3
14 39 29 102 35 24 3 49 9 54 14 13 13 23 13 31 0z m3772 4 c-3 -3 -12 -4 -19
-1 -8 3 -5 6 6 6 11 1 17 -2 13 -5z m-107 -24 c0 -5 -9 -10 -19 -10 -11 0 -23
5 -26 10 -4 6 5 10 19 10 14 0 26 -4 26 -10z m140 0 c0 -5 -15 -9 -32 -9 l-33
1 30 8 c17 4 31 8 33 9 1 0 2 -3 2 -9z m-5783 -6 c-3 -3 -12 -4 -19 -1 -8 3
-5 6 6 6 11 1 17 -2 13 -5z m43 -4 c0 -5 -7 -7 -15 -4 -8 4 -15 8 -15 10 0 2
7 4 15 4 8 0 15 -4 15 -10z m5791 -10 c10 0 19 -2 19 -4 0 -2 3 -12 7 -22 5
-13 3 -16 -9 -12 -9 4 -20 2 -26 -4 -6 -6 -12 -6 -17 2 -4 7 2 14 16 17 l23 6
-22 8 c-12 5 -22 14 -21 21 0 10 2 10 6 1 2 -7 13 -13 24 -13z m-6978 -60 c12
-25 23 -49 25 -55 3 -5 -5 0 -17 12 -11 12 -21 30 -21 39 0 9 -10 30 -22 47
-18 26 -19 29 -4 17 10 -8 28 -35 39 -60z m6927 31 c0 -20 -6 -30 -20 -34 -22
-6 -37 8 -18 16 10 4 9 8 -2 16 -12 9 -11 11 8 11 13 0 20 4 17 10 -3 6 -1 10
4 10 6 0 11 -13 11 -29z m-5957 12 c-7 -2 -19 -2 -25 0 -7 3 -2 5 12 5 14 0
19 -2 13 -5z m2183 -35 c-3 -13 -5 -29 -5 -35 -1 -7 -10 -13 -21 -13 -23 0
-23 -2 -9 39 13 36 41 43 35 9z m3457 15 c-7 -2 -19 -2 -25 0 -7 3 -2 5 12 5
14 0 19 -2 13 -5z m232 -3 c-3 -5 -17 -10 -31 -10 -13 0 -24 5 -24 10 0 6 14
10 31 10 17 0 28 -4 24 -10z m-3821 -22 c-4 -7 -3 -8 5 -4 6 4 23 0 37 -9 30
-19 26 -32 -5 -16 -11 6 -31 12 -45 13 -26 2 -32 9 -19 21 11 12 35 8 27 -5z
m-177 -4 c-3 -3 -12 -4 -19 -1 -8 3 -5 6 6 6 11 1 17 -2 13 -5z m3761 -1 c-10
-2 -28 -2 -40 0 -13 2 -5 4 17 4 22 1 32 -1 23 -4z m169 -8 c1 -5 -8 -11 -22
-11 -25 -2 -32 6 -18 20 9 9 36 3 40 -9z m-10009 -70 l0 -30 -8 30 c-4 17 -8
41 -8 55 l0 25 8 -25 c4 -14 8 -38 8 -55z m2947 65 c3 -5 1 -10 -4 -10 -6 0
-11 5 -11 10 0 6 2 10 4 10 3 0 8 -4 11 -10z m1430 -8 l30 -9 -42 -7 c-32 -6
-46 -4 -58 7 -8 9 -15 17 -15 20 0 6 51 0 85 -11z m5767 8 c11 0 15 -5 12 -15
-4 -8 -15 -15 -25 -15 -22 0 -24 -11 -7 -28 16 -16 -13 -26 -55 -18 -17 4 -44
6 -58 6 -32 0 -65 23 -55 39 6 9 11 9 22 0 19 -16 74 -22 74 -9 0 6 -6 10 -12
11 -10 0 -10 2 0 6 6 2 12 12 12 20 0 12 8 14 38 9 20 -3 45 -6 54 -6z m-5665
-6 c-3 -3 -12 -4 -19 -1 -8 3 -5 6 6 6 11 1 17 -2 13 -5z m244 -21 c8 -9 14
-19 14 -22 0 -3 4 -5 8 -3 5 1 6 -2 2 -8 -10 -17 -21 -11 -34 17 -7 16 -15 23
-19 16 -4 -6 -22 -8 -42 -5 l-35 6 35 7 c55 10 57 10 71 -8z m1499 1 c0 -10
-5 -14 -16 -10 -8 3 -13 2 -10 -2 2 -4 -4 -9 -15 -9 -24 -2 -24 6 -1 23 23 18
42 17 42 -2z m-2877 -11 c-7 -2 -21 -2 -30 0 -10 3 -4 5 12 5 17 0 24 -2 18
-5z m1320 -7 c20 -1 37 -4 37 -8 0 -8 -16 -12 -33 -9 -5 1 -6 -3 -2 -9 9 -15
-12 -47 -35 -53 -24 -6 -24 -4 -5 33 9 17 11 30 6 30 -5 0 -18 3 -28 7 -15 6
-16 4 -5 -9 8 -10 10 -26 6 -42 -7 -31 -28 -33 -93 -10 -40 14 -45 13 -62 -2
-11 -10 -22 -14 -26 -11 -3 4 -1 7 5 7 7 0 12 4 12 9 0 5 -9 7 -20 4 -11 -3
-20 0 -20 6 0 6 5 11 12 11 6 0 8 3 5 6 -4 4 -13 1 -22 -6 -9 -7 -18 -10 -22
-6 -3 3 -1 6 5 6 7 0 12 4 12 9 0 5 -16 5 -37 0 -41 -9 -79 -12 -72 -5 2 3 18
7 34 10 15 3 52 10 81 16 29 6 82 12 118 13 35 1 61 6 58 11 -3 5 7 5 24 1 16
-5 46 -9 67 -9z m3264 8 c-3 -3 -12 -4 -19 -1 -8 3 -5 6 6 6 11 1 17 -2 13 -5z
m1663 -14 c0 -5 -5 -10 -11 -10 -5 0 -7 5 -4 10 3 6 8 10 11 10 2 0 4 -4 4
-10z m130 1 c0 -5 -7 -11 -15 -15 -9 -3 -15 0 -15 9 0 8 7 15 15 15 8 0 15 -4
15 -9z m30 5 c0 -3 -4 -8 -10 -11 -5 -3 -10 -1 -10 4 0 6 5 11 10 11 6 0 10
-2 10 -4z m177 -17 c4 -15 12 -20 29 -16 13 2 21 1 19 -4 -3 -4 1 -10 7 -12 7
-3 0 -6 -15 -6 -35 -1 -78 26 -70 45 8 21 24 17 30 -7z m-7032 1 c3 -5 1 -10
-4 -10 -6 0 -11 5 -11 10 0 6 2 10 4 10 3 0 8 -4 11 -10z m3342 4 c-3 -3 -12
-4 -19 -1 -8 3 -5 6 6 6 11 1 17 -2 13 -5z m247 -26 c-3 -4 -13 -2 -24 4 -10
7 -17 16 -14 20 3 4 13 2 24 -4 10 -7 17 -16 14 -20z m3069 25 c-7 -2 -19 -2
-25 0 -7 3 -2 5 12 5 14 0 19 -2 13 -5z m-3200 -10 c-7 -2 -19 -2 -25 0 -7 3
-2 5 12 5 14 0 19 -2 13 -5z m-93 -13 c0 -5 -7 -10 -15 -10 -8 0 -15 5 -15 10
0 6 7 10 15 10 8 0 15 -4 15 -10z m3625 0 c3 -5 -1 -10 -10 -10 -9 0 -13 5
-10 10 3 6 8 10 10 10 2 0 7 -4 10 -10z m-3505 -9 c-14 -8 -72 -20 -127 -26
-11 -2 -32 -6 -45 -9 -14 -4 -11 0 9 9 17 8 60 18 95 23 85 13 85 13 68 3z
m3315 -1 c-3 -5 -16 -10 -28 -9 -21 0 -21 1 -2 9 28 12 37 12 30 0z m85 1 c0
-12 -20 -25 -27 -18 -7 7 6 27 18 27 5 0 9 -4 9 -9z m-5016 -26 c19 -15 19
-15 -1 -15 -11 0 -23 7 -27 15 -7 19 3 19 28 0z m4554 -46 c-10 -7 -9 -9 5 -9
10 0 17 8 17 19 0 18 17 38 25 30 2 -2 1 -16 -2 -31 -5 -25 -10 -28 -43 -28
-32 0 -38 4 -42 25 -6 31 7 42 21 18 8 -15 10 -14 18 12 l8 30 3 -29 c2 -16
-2 -32 -10 -37z m321 41 c12 0 21 -4 21 -10 0 -5 -6 -10 -14 -10 -9 0 -14 -9
-13 -20 1 -12 8 -20 20 -20 10 0 15 5 12 10 -3 6 1 10 9 10 9 0 16 -4 16 -9 0
-15 -29 -33 -41 -25 -7 4 -9 3 -5 -4 3 -6 2 -13 -4 -17 -6 -4 -8 -11 -5 -16 4
-5 -3 -9 -14 -9 -11 0 -26 -6 -33 -13 -10 -11 -15 -12 -25 -1 -17 17 -16 27 1
21 15 -6 16 9 2 32 -8 12 -11 12 -20 0 -13 -17 -66 -24 -66 -9 0 6 5 11 10 11
6 1 15 3 20 4 6 1 15 3 20 4 16 2 11 31 -6 31 -8 0 -13 -4 -10 -8 3 -5 -1 -9
-9 -9 -8 0 -15 8 -15 17 0 18 65 54 81 45 5 -4 9 -1 9 5 0 7 6 8 19 0 11 -5
29 -10 40 -10z m261 9 c-11 -8 -12 -12 -2 -16 6 -2 10 -8 7 -13 -3 -5 2 -15
10 -24 10 -10 12 -17 4 -21 -9 -6 -38 21 -39 37 0 4 -11 8 -25 10 -14 2 -24 8
-23 13 2 6 13 9 25 7 12 -1 24 2 28 8 3 5 12 10 18 10 7 0 6 -4 -3 -11z
m-5180 -18 c0 -4 -12 -7 -27 -8 -16 0 -20 1 -10 4 9 2 15 9 12 14 -3 5 1 6 9
3 9 -3 16 -9 16 -13z m-277 -18 c9 3 33 0 54 -7 l38 -13 -50 -11 c-27 -6 -50
-10 -50 -9 -1 14 -26 41 -37 39 -37 -10 -48 -10 -42 -1 12 20 48 27 60 11 6
-9 18 -13 27 -9z m4807 17 c0 -5 -7 -10 -15 -10 -8 0 -15 5 -15 10 0 6 7 10
15 10 8 0 15 -4 15 -10z m160 -10 c0 -14 5 -18 17 -13 13 5 15 2 10 -11 -4
-10 -10 -29 -13 -42 -8 -31 -26 -26 -30 7 -2 13 -6 36 -9 52 -3 19 0 27 10 27
8 0 15 -9 15 -20z m319 1 c26 -20 21 -41 -9 -41 -13 0 -17 5 -14 14 3 8 1 17
-5 21 -13 7 -15 25 -3 25 4 0 18 -9 31 -19z m-5119 -11 c0 -5 -7 -10 -16 -10
-8 0 -12 5 -9 10 3 6 10 10 16 10 5 0 9 -4 9 -10z m1925 -49 c24 -48 34 -59
50 -56 11 3 14 2 8 -1 -7 -3 -13 -15 -12 -27 0 -21 1 -21 9 -2 5 11 9 14 9 8
1 -7 6 -13 12 -13 6 0 9 6 6 13 -4 11 2 11 27 3 33 -10 43 -31 19 -40 -7 -3
-13 -10 -13 -16 0 -6 7 -5 20 2 16 10 24 10 40 0 12 -7 25 -10 30 -7 6 4 10 1
10 -6 0 -6 -8 -9 -17 -6 -32 8 -38 9 -55 8 -29 -2 -21 -21 15 -36 17 -8 26
-14 18 -15 -8 0 -23 -8 -34 -17 -11 -10 -18 -13 -14 -7 3 6 0 11 -8 11 -11 0
-12 -4 -4 -13 6 -7 8 -18 5 -23 -4 -6 10 -21 31 -34 21 -13 54 -34 73 -46 l35
-22 -35 5 c-19 2 -47 8 -62 11 l-27 7 2 -78 c2 -77 1 -79 -20 -77 -13 2 -23
-3 -23 -9 0 -8 -3 -8 -9 -2 -13 12 -171 410 -171 428 0 8 -5 18 -10 21 -15 10
5 32 36 39 20 5 23 11 18 31 -11 45 11 26 41 -34z m-6518 -8 c-3 -10 -5 -2 -5
17 0 19 2 27 5 18 2 -10 2 -26 0 -35z m4784 26 c-16 -13 -36 -19 -63 -17 -21
1 -43 -3 -48 -8 -11 -11 -80 -6 -80 6 0 4 15 11 33 14 30 7 46 7 107 5 13 0
26 4 28 10 2 6 13 11 25 11 22 -1 22 -1 -2 -21z m4459 7 c0 -21 -17 -29 -27
-13 -4 8 -15 17 -23 20 -8 3 0 6 18 6 21 1 32 -4 32 -13z m-4843 -12 c-3 -3
-12 -4 -19 -1 -8 3 -5 6 6 6 11 1 17 -2 13 -5z m3660 0 c-3 -3 -12 -4 -19 -1
-8 3 -5 6 6 6 11 1 17 -2 13 -5z m1293 -14 c0 -5 -4 -10 -9 -10 -6 0 -13 5
-16 10 -3 6 1 10 9 10 9 0 16 -4 16 -10z m-4782 -11 c9 -1 -12 -7 -48 -14 -64
-13 -80 -12 -80 5 0 9 74 19 98 13 8 -2 21 -4 30 -4z m105 -29 c-9 -16 -21
-30 -26 -30 -4 0 -6 4 -2 9 3 5 -2 17 -11 25 -8 9 -11 16 -5 16 5 0 14 -7 19
-17 9 -14 11 -14 21 5 7 12 14 22 17 22 3 0 -3 -13 -13 -30z m5006 4 c3 -16 1
-17 -13 -5 -19 16 -21 34 -3 29 6 -3 14 -13 16 -24z m-6093 0 c18 -14 18 -15
-6 -8 -31 8 -50 24 -29 24 8 0 24 -7 35 -16z m3044 0 c0 -3 -13 -3 -29 -2 -16
1 -28 5 -26 9 5 6 55 0 55 -7z m2700 6 c0 -5 -4 -10 -10 -10 -5 0 -10 5 -10
10 0 6 5 10 10 10 6 0 10 -4 10 -10z m-4887 -20 c5 -4 -9 -9 -31 -12 -23 -2
-38 1 -35 6 4 5 -7 6 -25 3 -31 -6 -45 6 -19 16 16 6 100 -4 110 -13z m163 7
c4 -3 -4 -4 -16 -2 -12 2 -25 7 -28 10 -3 3 4 4 16 2 12 -2 24 -6 28 -10z
m4893 -2 c8 0 15 -6 17 -13 1 -7 0 -8 -3 -2 -9 18 -23 11 -24 -12 l-2 -23 -4
23 c-2 12 -11 22 -19 22 -8 0 -12 5 -9 10 4 6 12 7 18 3 7 -4 18 -8 26 -8z
m-4766 -17 c-11 -13 -26 -33 -32 -45 -22 -44 -31 -23 -9 22 15 31 28 45 42 45
19 0 19 0 -1 -22z m2143 -35 c-10 -10 -19 5 -10 18 6 11 8 11 12 0 2 -7 1 -15
-2 -18z m-2341 7 c-3 -5 -16 -10 -28 -10 -18 0 -19 2 -7 10 20 13 43 13 35 0z
m5585 -6 c0 -8 -5 -12 -10 -9 -6 4 -8 11 -5 16 9 14 15 11 15 -7z m-5550 -14
c0 -5 -2 -10 -4 -10 -3 0 -8 5 -11 10 -3 6 -1 10 4 10 6 0 11 -4 11 -10z
m2640 0 c0 -5 -4 -10 -10 -10 -5 0 -10 5 -10 10 0 6 5 10 10 10 6 0 10 -4 10
-10z m70 -14 c0 -3 -4 -8 -10 -11 -5 -3 -10 -1 -10 4 0 6 5 11 10 11 6 0 10
-2 10 -4z m1690 -21 c0 -2 -7 -2 -15 1 -8 4 -15 1 -15 -5 0 -6 -5 -11 -11 -11
-8 0 -9 4 0 13 6 8 7 17 3 22 -4 4 3 2 16 -4 12 -6 22 -14 22 -16z m-2210 -20
c0 -5 -5 -3 -10 5 -5 8 -10 20 -10 25 0 6 5 3 10 -5 5 -8 10 -19 10 -25z
m-2333 5 c-14 -11 -28 -20 -32 -20 -10 0 38 39 49 40 5 0 -3 -9 -17 -20z
m2790 14 c-3 -3 -12 -4 -19 -1 -8 3 -5 6 6 6 11 1 17 -2 13 -5z m1318 -4 c3
-5 2 -10 -4 -10 -5 0 -13 5 -16 10 -3 6 -2 10 4 10 5 0 13 -4 16 -10z m-2149
-123 c30 -65 54 -126 54 -136 0 -10 10 -26 23 -34 l22 -16 -22 6 c-18 4 -23 1
-24 -13 0 -11 -2 -38 -4 -62 -3 -43 0 -47 74 -99 2 -2 2 -6 -2 -9 -3 -4 -23
10 -44 30 -44 41 -53 44 -53 15 0 -11 -4 -17 -10 -14 -5 3 -10 15 -10 26 0 10
-6 18 -12 17 -7 -2 -14 7 -16 20 -4 24 -22 31 -22 7 0 -18 -19 -20 -25 -2 -2
6 -6 29 -10 50 -3 21 -10 35 -16 32 -5 -4 -9 1 -9 10 0 9 5 13 10 10 14 -8 13
18 -1 32 -14 14 -3 33 17 33 10 0 12 4 7 13 -14 21 -10 167 5 167 10 0 10 5 1
21 -8 16 -8 20 1 17 7 -2 37 -57 66 -121z m945 98 c5 3 6 -2 2 -11 -4 -12 -3
-15 5 -10 8 5 10 2 6 -8 -3 -8 4 -46 17 -83 12 -37 22 -70 23 -73 1 -32 40
-99 67 -118 33 -23 38 -24 174 -17 77 4 150 11 163 16 31 12 65 11 57 -1 -3
-5 -1 -10 5 -10 7 0 9 -8 5 -19 -4 -14 6 -28 36 -55 24 -20 47 -36 51 -36 5 0
7 -3 4 -8 -2 -4 2 -16 9 -26 13 -17 14 -17 12 5 -1 13 -14 35 -30 48 -30 26
-30 39 1 22 12 -7 22 -7 29 0 6 6 14 5 23 -6 7 -8 17 -15 22 -15 10 0 57 -51
58 -62 0 -4 -21 -10 -46 -14 -33 -5 -44 -10 -40 -20 12 -31 -11 -11 -42 36
-18 27 -42 55 -54 61 -22 12 -22 9 -2 -93 10 -48 -22 -34 -35 15 -13 52 -42
92 -83 113 -28 15 -63 17 -213 13 -16 0 -45 2 -62 5 -18 3 -33 2 -33 -3 0 -4
-26 -11 -57 -15 -115 -14 -159 -19 -193 -20 -19 0 -38 -5 -42 -11 -13 -18 -21
5 -10 28 21 40 91 245 86 250 -3 3 4 19 16 35 12 17 20 35 16 40 -3 6 -1 14 4
17 6 4 16 19 22 33 9 22 12 24 15 9 3 -9 9 -15 14 -12z m-241 5 c-8 -5 -22 -9
-30 -9 -10 0 -8 3 5 9 27 12 43 12 25 0z m1410 -20 c0 -5 -7 -10 -15 -10 -8 0
-15 5 -15 10 0 6 7 10 15 10 8 0 15 -4 15 -10z m108 -37 c16 -13 5 -17 -21 -7
-9 3 -12 14 -9 32 5 22 7 23 10 7 2 -11 11 -26 20 -32z m-3905 30 c-7 -2 -19
-2 -25 0 -7 3 -2 5 12 5 14 0 19 -2 13 -5z m2704 -16 c15 6 16 5 3 -9 -14 -16
-16 -16 -27 0 -7 8 -13 21 -13 26 0 6 5 3 11 -6 6 -11 16 -15 26 -11z m648 13
c3 -5 1 -10 -4 -10 -6 0 -11 5 -11 10 0 6 2 10 4 10 3 0 8 -4 11 -10z m232
-14 c-33 -25 -19 -34 45 -29 47 5 59 3 53 -6 -4 -8 -21 -11 -41 -9 -19 2 -34
0 -34 -4 0 -18 -39 -7 -45 13 -7 20 23 63 35 52 3 -3 -3 -10 -13 -17z m153 20
c0 -3 -4 -8 -10 -11 -5 -3 -10 -1 -10 4 0 6 5 11 10 11 6 0 10 -2 10 -4z
m-3610 -16 c0 -5 -13 -10 -30 -10 -16 0 -30 5 -30 10 0 6 14 10 30 10 17 0 30
-4 30 -10z m3560 -6 c0 -2 -16 -4 -36 -4 -19 0 -33 4 -30 8 5 8 66 4 66 -4z
m-3497 -1 c-7 -2 -19 -2 -25 0 -7 3 -2 5 12 5 14 0 19 -2 13 -5z m-1413 -13
c12 -8 9 -10 -12 -10 -15 0 -30 5 -33 10 -8 13 25 13 45 0z m3970 5 c0 -2 -10
-10 -22 -16 -21 -11 -22 -11 -9 4 13 16 31 23 31 12z m1065 -6 c11 -16 1 -19
-13 -3 -7 8 -8 14 -3 14 5 0 13 -5 16 -11z m-3796 -3 c-11 -9 -69 -14 -69 -6
0 6 17 10 37 10 20 0 34 -2 32 -4z m3756 -6 c-3 -5 -13 -10 -21 -10 -8 0 -14
5 -14 10 0 6 9 10 21 10 11 0 17 -4 14 -10z m-3845 -14 c0 -2 -15 -6 -34 -8
-19 -2 -32 0 -30 4 5 8 64 12 64 4z m3865 -6 c3 -5 -1 -10 -9 -10 -9 0 -16 5
-16 10 0 6 4 10 9 10 6 0 13 -4 16 -10z m-5122 -17 c-7 -2 -19 -2 -25 0 -7 3
-2 5 12 5 14 0 19 -2 13 -5z m4990 0 c-7 -2 -21 -2 -30 0 -10 3 -4 5 12 5 17
0 24 -2 18 -5z m202 -3 c8 -13 -5 -13 -25 0 -13 8 -13 10 2 10 9 0 20 -4 23
-10z m-4972 -17 c-7 -2 -21 -2 -30 0 -10 3 -4 5 12 5 17 0 24 -2 18 -5z m3837
-21 c0 -15 -2 -15 -10 -2 -13 20 -13 33 0 25 6 -3 10 -14 10 -23z m299 -24
c12 -15 11 -18 -3 -18 -10 0 -16 8 -16 22 0 12 1 19 3 17 1 -2 9 -12 16 -21z
m-6037 -30 c-7 -7 -12 -8 -12 -2 0 14 12 26 19 19 2 -3 -1 -11 -7 -17z m5033
2 c3 -5 2 -10 -4 -10 -5 0 -13 5 -16 10 -3 6 -2 10 4 10 5 0 13 -4 16 -10z
m856 -27 c22 -15 43 -22 51 -17 7 4 10 4 6 -1 -4 -4 3 -16 15 -26 40 -33 -6
-22 -54 13 -24 18 -66 41 -94 51 l-50 18 45 -7 c24 -3 61 -18 81 -31z m286 31
c-3 -3 -12 -4 -19 -1 -8 3 -5 6 6 6 11 1 17 -2 13 -5z m-1143 -40 c15 -14 27
-27 25 -29 -2 -2 -19 10 -37 26 -18 16 -29 29 -25 29 5 0 21 -12 37 -26z m186
-9 c17 -9 30 -21 30 -28 0 -7 -3 -8 -8 -2 -4 6 -23 18 -42 27 -19 9 -29 17
-22 17 7 1 26 -6 42 -14z m195 -112 c-4 -17 1 -27 20 -39 26 -17 57 -68 69
-114 4 -14 -5 -4 -18 22 -27 49 -65 82 -109 93 -19 5 -27 3 -27 -6 0 -12 -2
-12 -9 0 -5 8 -16 11 -25 8 -20 -8 -48 2 -40 14 3 5 1 9 -4 9 -16 0 -22 -13
-11 -27 15 -18 10 -17 -47 9 -27 11 -92 34 -144 49 -76 22 -88 28 -60 29 31 2
32 3 10 9 -17 5 -21 9 -12 15 7 4 34 1 60 -7 26 -9 79 -21 117 -28 61 -10 133
-27 200 -45 14 -4 9 5 -17 30 -24 22 -36 40 -32 50 5 13 13 9 46 -16 31 -25
38 -37 33 -55z m-575 47 c0 -5 -7 -7 -15 -4 -8 4 -15 8 -15 10 0 2 7 4 15 4 8
0 15 -4 15 -10z m-240 -22 c0 -19 -2 -20 -10 -8 -13 19 -13 30 0 30 6 0 10
-10 10 -22z m2170 -30 c19 -6 45 -17 57 -25 12 -8 28 -11 34 -7 8 4 9 3 5 -4
-4 -7 -1 -12 8 -12 8 0 17 -4 20 -8 3 -5 -10 -8 -29 -8 -18 1 -31 4 -29 8 3 4
-15 12 -38 18 -24 7 -51 16 -62 22 -28 15 -66 20 -66 8 0 -5 -8 -10 -17 -10
-17 1 -17 1 -1 14 10 7 15 16 12 19 -8 8 62 -2 106 -15z m-3142 -18 c48 -28
67 -50 41 -50 -5 0 -7 5 -3 12 5 8 2 9 -9 5 -10 -3 -17 -2 -17 4 0 6 -5 7 -10
4 -12 -8 -80 16 -80 28 0 4 4 5 10 2 6 -3 7 1 4 9 -9 23 4 20 64 -14z m1410
-4 c53 -19 102 -55 101 -75 0 -12 -4 -10 -16 7 -8 12 -21 22 -27 22 -7 0 -18
6 -24 12 -7 7 -32 20 -55 30 -51 21 -35 24 21 4z m-114 -95 c-4 -3 -11 3 -18
13 -6 11 -24 35 -39 55 -16 20 -8 14 17 -13 25 -28 43 -52 40 -55z m1736 36
c0 -13 -5 -28 -11 -34 -12 -12 -49 -6 -49 9 0 5 9 7 19 3 14 -4 19 -1 17 9 -1
9 -5 19 -9 22 -4 4 -7 13 -7 21 0 11 5 11 20 3 11 -6 20 -21 20 -33z m-3079
23 c4 0 6 -7 2 -17 -5 -14 -1 -15 28 -10 l34 6 -30 -14 c-25 -11 -27 -13 -10
-18 12 -3 14 -5 5 -6 -20 -1 -32 8 -54 43 -17 26 -17 28 -1 23 9 -4 21 -7 26
-7z m644 -25 c29 -23 29 -24 5 -18 -29 7 -50 21 -50 34 0 15 13 10 45 -16z
m-490 -2 c18 -14 18 -15 2 -9 -10 3 -23 6 -28 6 -5 0 -9 5 -9 10 0 14 12 12
35 -7z m2700 -1 c-3 -3 -11 0 -18 7 -9 10 -8 11 6 5 10 -3 15 -9 12 -12z m515
3 c33 -17 40 -28 13 -18 -23 8 -60 33 -50 33 5 0 21 -7 37 -15z m-2070 -15 c0
-5 -2 -10 -4 -10 -3 0 -8 5 -11 10 -3 6 -1 10 4 10 6 0 11 -4 11 -10z m379
-26 c2 -2 -7 -4 -22 -4 -14 0 -29 5 -32 10 -6 10 42 4 54 -6z m1312 6 c10 0
28 -10 40 -22 13 -14 23 -19 26 -12 3 8 21 6 61 -6 51 -16 57 -20 53 -41 -11
-60 -7 -74 22 -77 15 -2 27 -8 27 -14 0 -6 -16 -7 -42 -4 -41 6 -34 -2 15 -18
18 -6 34 -33 24 -42 -3 -3 -22 2 -42 12 -21 9 -45 17 -53 17 -9 0 -23 6 -30
13 -7 7 -59 27 -115 44 -147 46 -155 48 -134 49 9 1 17 6 17 11 0 6 7 10 15
10 8 0 15 5 15 11 0 6 -7 9 -15 5 -8 -3 -15 -1 -15 4 0 6 6 10 13 10 6 0 3 8
-8 16 -14 11 -15 15 -5 14 28 -4 41 0 35 10 -4 6 -11 7 -17 4 -7 -5 -8 -2 -3
6 5 8 21 10 53 6 25 -3 53 -6 63 -6z m-1796 -18 c-3 -3 -11 0 -18 7 -9 10 -8
11 6 5 10 -3 15 -9 12 -12z m2250 8 c-3 -5 -11 -10 -16 -10 -6 0 -7 5 -4 10 3
6 11 10 16 10 6 0 7 -4 4 -10z m-1585 -30 l34 -30 -27 0 c-17 0 -27 -5 -27
-15 0 -21 -9 -19 -31 8 -20 25 -25 47 -8 47 5 0 7 5 4 10 -13 21 21 8 55 -20z
m-425 -54 c50 -25 77 -43 60 -39 -16 3 -41 13 -55 22 -14 9 -51 29 -82 45 -31
16 -54 34 -51 39 3 4 12 2 22 -7 9 -8 57 -35 106 -60z m1382 68 c-3 -3 -12 -4
-19 -1 -8 3 -5 6 6 6 11 1 17 -2 13 -5z m508 -38 c39 -19 81 -46 94 -60 l23
-25 -21 -22 c-20 -22 -21 -22 -43 -3 l-23 19 19 -23 c15 -17 17 -25 8 -34 -9
-9 -12 -8 -12 4 0 8 -6 21 -14 28 -8 6 -12 19 -9 27 5 13 2 15 -15 11 -12 -4
-22 -2 -22 3 0 5 -6 9 -14 9 -8 0 -16 7 -20 15 -3 8 -13 15 -21 15 -9 0 -23 7
-31 15 -9 9 -11 15 -4 15 7 0 6 5 -2 14 -7 8 -16 12 -20 9 -12 -7 -29 7 -22
19 10 17 73 1 149 -36z m-3168 -2 c-3 -3 -12 -4 -19 -1 -8 3 -5 6 6 6 11 1 17
-2 13 -5z m51 -7 c20 -11 21 -15 8 -32 -12 -16 -16 -17 -30 -6 -16 14 -23 51
-8 51 4 -1 17 -6 30 -13z m235 -4 c-7 -2 -19 -2 -25 0 -7 3 -2 5 12 5 14 0 19
-2 13 -5z m2321 -1 c3 -5 8 -24 10 -43 l6 -34 -15 28 c-9 15 -23 28 -33 28
-23 2 -55 6 -67 9 -22 5 -26 -1 -10 -16 28 -28 1 -39 -77 -31 -43 4 -43 15 -2
33 22 9 46 20 54 25 20 10 127 11 134 1z m-2483 -22 c6 0 7 -4 4 -10 -3 -5 0
-7 9 -4 9 3 20 -3 28 -15 7 -12 22 -21 33 -21 15 0 17 2 6 9 -11 7 -11 9 0 13
19 7 39 -2 39 -16 0 -18 -65 -19 -80 -1 -7 8 -17 15 -22 15 -6 0 -4 -7 3 -16
12 -15 10 -15 -25 0 -21 9 -40 16 -41 16 -2 0 -1 9 2 21 4 12 11 18 20 15 8
-3 19 -6 24 -6z m277 -15 c13 -29 6 -32 -26 -9 -27 18 -29 34 -4 34 11 0 24
-11 30 -25z m2184 -21 c24 -14 51 -37 61 -50 17 -23 17 -24 0 -24 -16 1 -127
100 -111 100 4 0 26 -12 50 -26z m-6937 -67 c13 -19 13 -23 0 -36 -13 -13 -18
-12 -41 10 -24 22 -74 92 -74 104 0 10 101 -58 115 -78z m5555 58 c13 -14 19
-25 14 -25 -10 0 -54 37 -54 45 0 12 19 3 40 -20z m353 14 c21 0 21 -1 2 -8
-23 -9 -55 -3 -55 11 0 6 7 7 16 4 9 -3 25 -6 37 -7z m108 -26 c13 -16 12 -17
-3 -4 -10 7 -18 15 -18 17 0 8 8 3 21 -13z m1479 7 c0 -5 -2 -10 -4 -10 -3 0
-8 5 -11 10 -3 6 -1 10 4 10 6 0 11 -4 11 -10z m-8380 -33 c0 -5 -4 -5 -10 -2
-5 3 -10 14 -10 23 0 15 2 15 10 2 5 -8 10 -19 10 -23z m5676 6 c-8 -8 -56 6
-56 17 0 5 13 5 31 -2 16 -6 28 -13 25 -15z m-129 11 c-3 -3 -12 -4 -19 -1 -8
3 -5 6 6 6 11 1 17 -2 13 -5z m1511 -18 c43 -27 67 -52 55 -59 -15 -8 -109 8
-95 16 20 13 14 25 -13 29 -14 2 -25 7 -25 13 1 5 -7 12 -17 16 -12 5 -6 8 20
8 23 1 52 -8 75 -23z m717 18 c13 -5 14 -8 3 -15 -19 -12 -25 -11 -25 6 0 17
0 17 22 9z m-415 -14 c-34 -11 -60 -11 -35 0 11 5 29 8 40 8 16 0 15 -2 -5 -8z
m380 -10 c0 -5 -2 -10 -4 -10 -3 0 -8 5 -11 10 -3 6 -1 10 4 10 6 0 11 -4 11
-10z m-1070 -10 c0 -5 -5 -10 -11 -10 -5 0 -7 5 -4 10 3 6 8 10 11 10 2 0 4
-4 4 -10z m940 0 c0 -5 -7 -10 -15 -10 -8 0 -15 5 -15 10 0 6 7 10 15 10 8 0
15 -4 15 -10z m1391 -3 c-1 -12 -15 -9 -19 4 -3 6 1 10 8 8 6 -3 11 -8 11 -12z
m-497 -6 c6 -9 -114 -91 -133 -91 -18 0 -30 34 -20 53 12 20 75 24 82 5 3 -9
14 -4 33 15 32 31 31 30 38 18z m-621 -17 c50 -18 52 -17 37 1 -29 35 37 9 81
-32 24 -22 34 -24 119 -24 89 0 164 -11 203 -31 10 -5 16 -12 14 -15 -3 -2
-15 0 -26 7 -23 12 -28 1 -8 -19 10 -11 5 -13 -28 -8 -22 4 -44 13 -50 20 -5
8 -12 14 -15 15 -3 0 -13 4 -22 7 -9 4 -27 5 -40 3 -22 -3 -22 -4 11 -36 19
-18 31 -35 28 -39 -4 -3 -7 0 -7 7 0 7 -3 11 -6 7 -8 -8 -64 13 -64 24 0 5 -7
9 -15 9 -7 0 -19 8 -24 18 -8 12 -10 13 -11 3 0 -8 6 -22 14 -30 15 -16 89
-160 106 -207 9 -22 13 -24 25 -14 10 8 15 9 15 2 0 -6 -4 -14 -10 -17 -5 -3
-10 -15 -10 -26 0 -22 37 -27 61 -6 12 10 12 10 2 -2 -10 -12 -8 -16 9 -25 12
-6 23 -17 26 -24 3 -9 -9 -7 -37 7 -22 12 -43 21 -46 21 -3 0 -5 -18 -5 -40 0
-38 2 -40 30 -40 53 0 32 -20 -22 -21 -29 -1 -63 -3 -74 -4 -15 -1 -39 15 -74
51 -29 30 -68 59 -86 66 -19 7 -34 17 -34 23 0 5 -13 18 -28 29 -16 10 -28 26
-28 35 2 62 -18 212 -30 222 -19 15 -18 30 1 23 8 -4 15 -2 15 2 -1 26 -65 73
-72 54 -2 -7 -10 -6 -21 3 -17 12 -15 13 19 14 20 1 55 -5 77 -13z m1187 -17
c-1 -21 -1 -21 -15 -3 -8 10 -12 23 -9 28 9 14 24 -2 24 -25z m-9019 -19 c20
-41 20 -42 1 -23 -19 19 -39 65 -28 65 3 0 15 -19 27 -42z m7364 32 c3 -6 -1
-7 -9 -4 -18 7 -21 14 -7 14 6 0 13 -4 16 -10z m1358 3 c-7 -2 -19 -2 -25 0
-7 3 -2 5 12 5 14 0 19 -2 13 -5z m1120 0 c-7 -2 -21 -2 -30 0 -10 3 -4 5 12
5 17 0 24 -2 18 -5z m-1805 -30 c-16 -2 -40 -2 -55 0 -16 2 -3 4 27 4 30 0 43
-2 28 -4z m448 -9 c-4 -10 3 -23 16 -35 l23 -20 -25 7 c-14 4 -27 9 -30 13 -8
9 -40 10 -35 0 3 -4 -3 -13 -12 -19 -18 -11 -13 -11 32 5 16 6 15 3 -5 -13
-22 -19 -26 -19 -42 -5 -10 8 -22 12 -30 7 -7 -4 -4 2 6 14 10 12 34 27 52 34
19 7 34 16 34 20 0 4 5 8 11 8 6 0 8 -7 5 -16z m-6394 -1 c-6 -2 -10 -8 -7
-13 3 -4 -4 -6 -15 -3 -29 8 -24 23 8 22 15 0 21 -3 14 -6z m5644 -10 c20 -27
18 -28 -44 -29 -31 0 -71 -3 -88 -7 -26 -5 -33 -3 -37 13 -5 20 7 25 93 33 19
2 41 5 49 5 8 1 20 -6 27 -15z m2051 11 c-3 -3 -12 -4 -19 -1 -8 3 -5 6 6 6
11 1 17 -2 13 -5z m-739 -109 c38 -91 48 -105 73 -105 22 0 33 -16 22 -32 -9
-15 -43 -20 -43 -7 0 5 -16 31 -35 59 -19 27 -37 64 -40 82 -3 18 -17 42 -31
54 -13 11 -21 23 -17 27 18 19 40 -5 71 -78z m-5588 40 c13 -14 20 -28 17 -32
-4 -3 -7 -1 -7 6 0 7 -5 9 -12 5 -7 -4 -8 -3 -4 4 5 8 -1 12 -18 12 -14 0 -28
5 -31 10 -3 6 -14 10 -23 10 -15 0 -15 -2 -2 -10 10 -6 11 -10 3 -10 -7 0 -13
-7 -13 -15 0 -9 -6 -12 -15 -9 -8 4 -15 1 -15 -7 0 -7 -2 -10 -5 -7 -11 11 7
57 23 61 45 12 79 6 102 -18z m5044 6 c3 -4 -6 -13 -20 -20 -39 -17 -52 -13
-24 9 28 22 36 24 44 11z m1366 -1 c0 -5 -2 -10 -4 -10 -3 0 -8 5 -11 10 -3 6
-1 10 4 10 6 0 11 -4 11 -10z m55 -19 c-3 -6 -11 -11 -17 -11 -6 0 -6 6 2 15
14 17 26 13 15 -4z m-1563 -36 c-3 -5 -7 -4 -10 3 -6 18 -23 15 -49 -10 -35
-32 -36 -17 -2 20 28 30 30 31 48 14 10 -9 15 -21 13 -27z m285 15 c6 -16 8
-32 4 -35 -4 -2 -13 11 -19 30 -13 43 -1 47 15 5z m913 20 c0 -5 -7 -10 -16
-10 -8 0 -12 5 -9 10 3 6 10 10 16 10 5 0 9 -4 9 -10z m-1311 -23 c12 4 13 3
5 -6 -12 -13 -44 -5 -44 12 0 8 3 8 11 0 6 -6 19 -9 28 -6z m381 -31 c0 -6 -7
-2 -15 8 -8 11 -15 25 -15 30 0 6 7 2 15 -8 8 -11 15 -25 15 -30z m308 30 c39
-20 64 -52 59 -73 -3 -15 -5 -14 -14 7 -15 35 -41 56 -54 43 -6 -6 2 -19 22
-37 22 -20 28 -31 20 -39 -18 -18 -63 -17 -90 2 -14 10 -44 24 -66 32 -38 13
-55 25 -55 41 0 4 11 2 25 -4 14 -6 25 -16 25 -21 0 -6 2 -8 6 -5 3 3 26 -1
51 -8 55 -17 65 -12 33 16 -25 22 -35 26 -25 10 3 -6 -1 -7 -9 -4 -9 3 -13 11
-9 18 23 40 38 44 81 22z m492 -18 c0 -6 -6 -5 -15 2 -8 7 -15 14 -15 16 0 2
7 1 15 -2 8 -4 15 -11 15 -16z m-1260 -30 c0 -5 -7 -3 -15 6 -8 8 -15 18 -15
22 0 3 7 1 15 -6 8 -7 15 -17 15 -22z m170 28 c0 -3 -4 -8 -10 -11 -5 -3 -10
-1 -10 4 0 6 5 11 10 11 6 0 10 -2 10 -4z m44 -10 c-6 -16 -44 -29 -44 -15 0
8 23 21 47 28 1 1 0 -5 -3 -13z m1416 4 c0 -5 -5 -10 -11 -10 -5 0 -7 5 -4 10
3 6 8 10 11 10 2 0 4 -4 4 -10z m58 -2 c-6 -18 -28 -21 -28 -4 0 9 7 16 16 16
9 0 14 -5 12 -12z m-378 -2 c0 -3 -4 -8 -10 -11 -5 -3 -10 -1 -10 4 0 6 5 11
10 11 6 0 10 -2 10 -4z m160 -6 c0 -5 -2 -10 -4 -10 -3 0 -8 5 -11 10 -3 6 -1
10 4 10 6 0 11 -4 11 -10z m50 6 c0 -3 -4 -8 -10 -11 -5 -3 -10 -1 -10 4 0 6
5 11 10 11 6 0 10 -2 10 -4z m-1425 -36 c-10 -11 -20 -18 -23 -15 -7 6 18 35
31 35 5 0 2 -9 -8 -20z m1510 10 c3 -5 1 -10 -4 -10 -6 0 -11 5 -11 10 0 6 2
10 4 10 3 0 8 -4 11 -10z m-161 -19 c3 -5 -1 -14 -10 -21 -12 -11 -17 -11 -27
0 -9 10 -9 11 1 6 18 -10 38 4 21 15 -10 6 -10 9 -2 9 6 0 14 -4 17 -9z
m-1164 -21 c9 -17 6 -21 -26 -35 -21 -8 -46 -12 -57 -9 -20 6 -20 7 -1 21 11
8 29 11 42 8 15 -4 21 -2 17 5 -6 9 1 30 10 30 2 0 9 -9 15 -20z m1120 -16 c0
-2 -13 2 -30 11 -16 9 -30 18 -30 21 0 2 14 -2 30 -11 17 -9 30 -18 30 -21z
m-1360 -24 c-22 -30 -30 -37 -30 -22 0 9 38 52 46 52 3 0 -4 -13 -16 -30z
m1389 -29 c36 -26 76 -53 88 -60 12 -6 68 -57 125 -114 l103 -102 -55 -3 -55
-4 -119 124 c-121 126 -186 208 -165 208 6 0 41 -22 78 -49z m-520 23 c10 -9
-12 -21 -34 -17 -13 3 -23 9 -20 13 3 5 -1 11 -7 14 -7 3 3 3 22 0 19 -4 37
-8 39 -10z m-3974 -14 c3 -5 2 -10 -4 -10 -5 0 -13 5 -16 10 -3 6 -2 10 4 10
5 0 13 -4 16 -10z m445 -5 c7 -8 9 -15 6 -15 -4 0 -14 7 -22 15 -9 8 -11 15
-6 15 5 0 15 -7 22 -15z m-343 -1 c-3 -3 -12 -4 -19 -1 -8 3 -5 6 6 6 11 1 17
-2 13 -5z m3247 -19 c-10 -8 -28 -14 -39 -14 -15 0 -11 5 15 19 39 20 54 18
24 -5z m-3138 -10 c49 -32 16 -67 -38 -39 -24 12 -28 18 -17 25 10 7 7 8 -11
7 -17 -2 -25 3 -28 16 -4 17 0 18 33 13 20 -3 48 -13 61 -22z m3674 -15 l35
-30 -40 20 c-21 11 -60 20 -85 21 l-45 1 35 12 c43 16 56 13 100 -24z m-426
-49 c34 -33 38 -51 12 -51 -14 0 -66 89 -65 111 0 8 4 5 9 -6 4 -11 24 -35 44
-54z m572 44 c-3 -28 -16 -47 -16 -22 0 16 10 47 15 47 2 0 2 -11 1 -25z
m-627 -26 c6 -17 8 -35 5 -41 -8 -12 -34 10 -34 29 0 8 -4 11 -10 8 -14 -9
-13 8 2 23 18 18 25 15 37 -19z m911 -51 c36 -33 58 -57 50 -52 -8 4 -53 9
-99 10 -46 2 -88 7 -94 13 -11 11 1 16 31 12 18 -3 15 16 -5 31 -10 7 -24 21
-32 31 -12 16 -10 17 35 17 46 -1 53 -5 114 -62z m-10000 42 c0 -5 -8 -10 -17
-10 -15 0 -16 2 -3 10 19 12 20 12 20 0z m8914 -22 c-5 -8 -44 13 -44 23 0 4
11 2 24 -4 13 -7 22 -15 20 -19z m876 18 c-4 -4 -16 -4 -26 2 -16 9 -14 10 8
9 15 -1 23 -6 18 -11z m-435 -27 c11 -17 -1 -21 -15 -4 -8 9 -8 15 -2 15 6 0
14 -5 17 -11z m-1690 -25 c15 -14 25 -27 22 -30 -7 -7 -96 17 -103 28 -8 12
14 28 37 28 9 0 28 -11 44 -26z m-479 -40 c39 -24 77 -51 84 -59 11 -13 15
-13 23 -3 6 10 7 9 4 -4 -3 -9 3 -28 14 -42 33 -42 8 -29 -41 20 -25 25 -58
52 -75 61 -16 8 -39 23 -50 33 -11 10 -33 25 -50 34 -26 15 -27 16 -5 10 14
-3 57 -26 96 -50z m688 21 c20 -14 43 -25 50 -25 7 0 23 -11 36 -25 27 -29 27
-29 -40 -14 -38 8 -56 19 -75 43 -41 54 -30 61 29 21z m1176 -5 l35 -29 -27
-1 c-21 0 -31 8 -43 30 -19 38 -10 38 35 0z m-85 2 c-3 -3 -11 0 -18 7 -9 10
-8 11 6 5 10 -3 15 -9 12 -12z m247 1 c10 -9 34 -24 54 -32 l35 -16 -31 -18
-31 -19 -40 41 c-38 37 -44 61 -17 61 6 0 20 -8 30 -17z m-192 -45 c0 -6 -7
-5 -15 2 -8 7 -15 17 -15 22 0 6 7 5 15 -2 8 -7 15 -17 15 -22z m115 -50 c40
-60 30 -80 -17 -36 -16 15 -36 28 -43 28 -7 0 -17 6 -23 13 -9 10 -3 12 26 9
l37 -5 -19 22 c-11 11 -14 21 -8 21 6 0 27 -23 47 -52z m-1454 -49 c41 -37 68
-69 60 -69 -7 0 -27 15 -45 34 -28 30 -133 96 -153 96 -4 0 10 -12 30 -26 48
-32 43 -40 -9 -15 -21 11 -55 26 -74 35 l-35 16 40 -5 c22 -3 46 -1 53 3 26
17 59 0 133 -69z m1150 63 c15 -9 44 -29 65 -43 22 -15 60 -47 85 -73 25 -25
60 -51 78 -57 24 -8 29 -14 20 -20 -11 -7 -10 -14 4 -39 18 -29 18 -30 -1 -30
-11 0 -35 11 -54 23 -21 15 -41 21 -53 17 -13 -4 -15 -9 -7 -14 7 -4 12 -12
12 -17 0 -6 -4 -8 -9 -5 -5 4 -12 0 -15 -6 -3 -7 -3 -3 0 9 4 16 -2 26 -20 38
-14 9 -29 14 -35 11 -10 -7 -24 22 -16 34 3 5 -4 11 -15 15 -11 3 -20 12 -20
19 0 7 -6 21 -14 32 -13 18 -14 17 -12 -11 2 -17 7 -39 11 -50 l7 -20 -14 20
c-32 43 -90 164 -83 174 10 17 57 13 86 -7z m586 7 c35 -9 42 -14 29 -21 -10
-6 -28 -2 -53 11 -44 23 -39 25 24 10z m-107 -9 c13 0 32 -39 25 -50 -7 -12
-75 20 -75 35 0 17 12 26 28 20 7 -3 18 -5 22 -5z m-285 -31 c30 -13 35 -18
18 -18 -12 -1 -24 3 -28 8 -3 5 -19 12 -35 16 -16 4 -33 11 -36 17 -8 12 21 4
81 -23z m530 21 c-3 -5 -12 -7 -20 -3 -21 7 -19 13 6 13 11 0 18 -4 14 -10z
m-1800 -20 c3 -5 2 -10 -4 -10 -5 0 -13 5 -16 10 -3 6 -2 10 4 10 5 0 13 -4
16 -10z m1910 -33 c7 -7 6 -8 -1 -4 -6 3 -23 8 -39 11 -16 3 -36 13 -44 21
-14 15 -11 14 29 -1 25 -9 50 -21 55 -27z m-1678 11 c-3 -8 -6 -5 -6 6 -1 11
2 17 5 13 3 -3 4 -12 1 -19z m2333 13 c-8 -5 -31 -11 -50 -15 l-35 -6 30 15
c33 16 82 21 55 6z m-3220 -40 c28 -17 44 -34 43 -45 -1 -13 2 -15 9 -8 12 12
66 -9 108 -42 l25 -19 -30 6 c-16 4 -41 10 -54 13 -16 5 -22 4 -17 -4 3 -6 31
-16 61 -22 57 -12 61 -15 45 -40 -8 -12 -11 -12 -27 2 -25 22 -63 32 -63 17 0
-9 -4 -8 -15 1 -8 7 -13 16 -10 20 3 5 -3 11 -13 14 -10 4 -28 19 -40 35 -12
16 -34 32 -49 36 -17 4 -37 21 -51 42 l-23 35 28 -6 c15 -4 48 -19 73 -35z
m145 29 l20 -9 -20 0 c-11 0 -27 4 -35 9 -13 9 -13 10 0 9 8 0 24 -4 35 -9z
m2624 -26 c14 -12 -19 -1 -35 12 -18 14 -18 14 6 3 14 -6 27 -13 29 -15z
m-2445 -65 c16 -17 -45 -1 -64 17 -12 12 -10 12 20 4 18 -5 38 -15 44 -21z
m2021 5 c28 -13 58 -23 67 -21 14 4 15 1 6 -19 -14 -30 -19 -30 -49 0 -13 13
-42 33 -64 44 -22 12 -33 21 -25 22 8 0 38 -12 65 -26z m-2777 -6 c13 -11 16
-28 5 -28 -5 1 -21 12 -38 26 -29 25 -29 25 -5 19 14 -4 31 -12 38 -17z m3032
12 c13 -8 12 -10 -5 -11 -11 -1 -30 -1 -41 0 -12 1 -27 -5 -34 -14 -10 -12 -9
-16 6 -21 31 -9 47 -19 58 -37 13 -20 4 -29 -28 -29 -22 0 -23 -2 -10 -15 18
-19 18 -24 -1 -17 -11 5 -14 1 -10 -12 4 -13 1 -12 -12 6 -10 13 -27 34 -38
45 -41 41 0 115 64 115 20 0 43 -5 51 -10z m-7790 -10 c0 -5 -7 -7 -15 -4 -8
4 -15 8 -15 10 0 2 7 4 15 4 8 0 15 -4 15 -10z m7833 0 c7 -5 45 -27 86 -47
76 -39 100 -63 62 -63 -12 0 -21 6 -21 14 0 11 -8 12 -42 4 -38 -8 -44 -7 -65
16 -13 14 -23 33 -23 44 0 10 -5 23 -12 30 -14 14 -2 16 15 2z m-2354 -26 c2
-2 -5 -4 -16 -4 -12 0 -23 7 -27 15 -5 13 -2 14 17 4 12 -6 24 -13 26 -15z
m2786 16 c8 -13 -55 -13 -75 0 -11 7 -4 10 27 10 23 0 45 -4 48 -10z m-2320
-11 c11 -17 -1 -21 -15 -4 -8 9 -8 15 -2 15 6 0 14 -5 17 -11z m2537 -10 c96
-37 203 -91 191 -96 -15 -6 -229 85 -244 103 -15 18 -9 18 53 -7z m-1207 -19
c3 -5 2 -10 -4 -10 -5 0 -13 5 -16 10 -3 6 -2 10 4 10 5 0 13 -4 16 -10z
m-2515 -22 c0 -18 -2 -20 -9 -8 -6 8 -7 18 -5 22 9 14 14 9 14 -14z m2566 -4
c18 -14 18 -14 -6 -3 -31 14 -36 19 -24 19 6 0 19 -7 30 -16z m259 -4 c10 -11
16 -20 13 -20 -3 0 -13 9 -23 20 -10 11 -16 20 -13 20 3 0 13 -9 23 -20z
m-7597 -2 c7 -7 12 -20 12 -30 0 -16 -3 -16 -20 -6 -11 7 -20 21 -20 30 0 21
11 23 28 6z m5464 -35 c52 -55 76 -104 39 -81 -11 7 -18 15 -15 19 2 4 -5 14
-16 22 -11 7 -17 17 -13 21 4 4 1 4 -8 1 -22 -8 -51 17 -43 38 9 24 15 22 56
-20z m1923 17 c3 -6 -1 -7 -9 -4 -18 7 -21 14 -7 14 6 0 13 -4 16 -10z m475
-28 c0 -15 -2 -15 -10 -2 -13 20 -13 33 0 25 6 -3 10 -14 10 -23z m210 -22
c-1 -12 -4 -11 -15 4 -8 10 -12 23 -8 29 7 11 23 -12 23 -33z m-611 -20 c9 0
30 -13 46 -30 23 -24 37 -30 71 -30 55 0 139 -39 191 -89 49 -46 87 -63 76
-34 -3 10 -15 30 -25 45 -22 32 -23 57 -3 64 8 4 12 10 9 15 -3 5 2 6 10 3 8
-3 16 2 19 13 3 10 5 -7 6 -37 0 -31 7 -62 14 -69 10 -11 10 -13 0 -7 -9 5
-13 1 -13 -11 0 -10 14 -27 32 -38 18 -10 72 -59 120 -107 75 -76 87 -93 82
-113 -5 -20 -2 -25 14 -25 24 0 64 -72 50 -92 -6 -10 -19 -1 -51 33 -30 33
-57 51 -94 64 -29 9 -53 21 -53 27 0 12 -102 147 -131 174 -28 26 -25 -3 6
-49 14 -20 23 -37 19 -37 -3 0 0 -10 8 -22 15 -24 13 -58 -3 -58 -5 0 -8 3 -7
8 3 15 -15 62 -24 62 -5 0 -6 -6 -2 -12 4 -7 -7 0 -24 16 -17 15 -35 26 -40
22 -5 -3 -21 3 -35 14 -34 27 -51 27 -37 0 12 -22 59 -49 75 -44 6 2 26 -10
45 -26 19 -16 30 -30 23 -30 -6 0 -25 11 -41 25 -16 13 -32 22 -35 19 -9 -10
-118 69 -113 82 3 7 -3 15 -12 19 -15 6 -15 8 3 15 19 8 19 9 -1 9 -12 1 -24
8 -28 16 -3 8 -10 15 -16 15 -6 0 -8 -4 -5 -10 3 -5 1 -10 -5 -10 -7 0 -10 7
-6 15 5 14 -42 59 -58 56 -3 0 -15 8 -25 18 -11 11 -36 23 -55 27 -20 3 -36
10 -36 14 0 5 -24 20 -53 34 -60 28 -101 65 -58 51 44 -14 166 -32 176 -26 5
3 0 8 -13 11 -13 3 -32 21 -44 40 l-21 35 27 -27 c15 -16 35 -28 45 -28z
m-1468 23 c8 -9 9 -14 2 -10 -6 4 -13 2 -15 -5 -3 -7 -7 -2 -10 10 -7 26 4 29
23 5z m1546 5 c5 -7 15 -26 22 -42 11 -26 10 -28 -3 -16 -9 7 -16 17 -16 23 0
6 -7 19 -17 29 -9 10 -11 18 -6 18 6 0 15 -6 20 -12z m-1507 -28 c0 -5 -2 -10
-4 -10 -3 0 -8 5 -11 10 -3 6 -1 10 4 10 6 0 11 -4 11 -10z m317 -36 c14 -14
32 -27 38 -28 13 -2 72 -66 61 -66 -3 0 -16 9 -28 21 -13 11 -45 38 -71 60
-27 21 -43 39 -37 39 6 0 23 -12 37 -26z m1710 1 c-10 -7 -17 -20 -17 -29 0
-17 -9 -20 -34 -10 -24 9 -20 20 16 42 33 21 64 18 35 -3z m-1947 5 c0 -5 -2
-10 -4 -10 -3 0 -8 5 -11 10 -3 6 -1 10 4 10 6 0 11 -4 11 -10z m-1332 -103
c45 -44 48 -51 32 -92 -8 -22 -12 -24 -23 -13 -7 7 -21 35 -31 61 -10 26 -34
64 -55 84 l-36 36 35 -18 c19 -9 54 -36 78 -58z m1419 27 c33 -32 34 -34 7
-16 -17 12 -37 28 -44 37 -23 28 -2 16 37 -21z m1780 -17 c4 -6 0 -8 -10 -4
-20 8 -22 -3 -4 -23 6 -8 1 -6 -11 5 -13 11 -28 27 -33 37 -8 15 -6 16 21 7
16 -6 33 -16 37 -22z m-652 13 c3 -5 2 -10 -4 -10 -5 0 -13 5 -16 10 -3 6 -2
10 4 10 5 0 13 -4 16 -10z m73 -45 c49 -25 117 -83 109 -91 -3 -3 -20 8 -38
24 -19 16 -56 44 -83 61 -60 37 -54 41 12 6z m-2818 -35 c6 -11 9 -20 7 -20
-2 0 -12 9 -22 20 -10 11 -13 20 -7 20 6 0 16 -9 22 -20z m280 -57 c0 -7 -7
-13 -15 -13 -15 0 -21 31 -8 43 8 8 23 -12 23 -30z m3279 -9 c14 -12 -19 -1
-35 12 -18 14 -18 14 6 3 14 -6 27 -13 29 -15z m-2221 -35 c-7 -5 -17 -9 -23
-9 -5 0 -3 5 5 10 9 6 10 10 3 10 -6 0 -11 9 -10 21 1 21 2 21 20 -2 14 -18
15 -24 5 -30z m-18 -39 c0 -5 -4 -10 -10 -10 -5 0 -10 5 -10 10 0 6 5 10 10
10 6 0 10 -4 10 -10z m-1560 -21 c0 -4 -7 -6 -15 -3 -8 4 -15 10 -15 15 0 4 7
6 15 3 8 -4 15 -10 15 -15z m3865 -77 c5 -26 10 -32 23 -27 32 12 36 10 42
-20 3 -19 12 -31 25 -34 24 -4 67 -32 61 -39 -3 -2 -17 3 -30 12 -29 18 -40
21 -31 6 8 -14 -30 -16 -82 -5 -19 4 -21 10 -16 40 4 26 2 36 -11 41 -12 5
-14 10 -6 19 11 13 4 45 -10 45 -5 0 -8 9 -7 20 1 20 2 20 18 -2 10 -12 20
-38 24 -56z m-1105 53 c0 -8 6 -15 13 -16 7 0 8 -2 1 -5 -6 -3 -9 -28 -6 -65
3 -36 0 -65 -6 -71 -8 -8 -8 -17 -1 -30 14 -26 0 -44 -17 -21 -14 19 -20 176
-8 207 8 20 24 21 24 1z m1327 -88 c3 -7 -3 -4 -14 6 -26 23 -37 22 -30 -3 8
-31 -9 -24 -23 10 -7 16 -18 35 -26 41 -8 6 -14 15 -14 20 0 10 97 -57 107
-74z m-252 53 c3 -5 1 -10 -4 -10 -6 0 -11 5 -11 10 0 6 2 10 4 10 3 0 8 -4
11 -10z m-271 -16 c3 -8 2 -12 -4 -9 -6 3 -10 10 -10 16 0 14 7 11 14 -7z
m435 -44 c13 -37 -5 -41 -19 -4 -12 31 -12 34 -1 34 5 0 14 -13 20 -30z
m-3575 -17 c19 -20 44 -55 56 -78 l22 -40 -24 26 c-13 14 -30 37 -38 49 -8 13
-25 34 -37 47 -22 23 -28 33 -19 33 3 0 20 -17 40 -37z m3640 -19 c3 -8 2 -12
-4 -9 -6 3 -10 10 -10 16 0 14 7 11 14 -7z m-934 -29 c13 -14 19 -25 14 -25
-8 1 -50 50 -41 50 2 0 14 -11 27 -25z m585 -54 c-8 -7 -56 31 -74 59 -12 19
-4 15 31 -15 26 -21 45 -41 43 -44z m-2550 39 c10 -11 16 -20 13 -20 -3 0 -13
9 -23 20 -10 11 -16 20 -13 20 3 0 13 -9 23 -20z m2245 6 c0 -8 12 -24 27 -35
14 -12 24 -23 22 -26 -3 -2 -19 7 -37 21 -31 24 -43 54 -22 54 6 0 10 -6 10
-14z m-1673 -103 c50 -60 110 -132 135 -160 66 -78 58 -98 -23 -57 -15 7 -29
11 -32 7 -4 -3 -11 6 -16 21 -6 14 -12 26 -15 26 -2 0 -13 3 -23 7 -16 6 -17
5 -3 -12 14 -17 13 -18 -5 -11 -11 4 -29 9 -40 12 -11 2 -27 12 -35 22 -9 10
-21 17 -28 14 -17 -5 -83 18 -77 27 2 5 -7 6 -21 3 -22 -4 -23 -6 -8 -17 14
-10 7 -12 -38 -12 -45 0 -54 3 -54 18 0 17 2 17 18 2 15 -14 21 -14 31 -3 9
10 9 11 0 6 -8 -4 -13 -1 -13 7 0 8 -8 21 -17 28 -11 10 -14 10 -9 2 5 -9 1
-13 -13 -13 -11 0 -24 6 -28 13 -10 15 -103 48 -103 36 0 -5 -9 0 -20 11 -12
12 -26 17 -37 13 -15 -6 -14 -8 7 -14 14 -4 18 -8 10 -9 -11 -1 -9 -4 5 -10
20 -8 19 -9 -1 -9 -12 -1 -27 6 -34 14 -7 8 -25 15 -41 15 -15 0 -31 5 -35 12
-5 7 0 9 14 6 18 -5 20 -3 12 18 -8 20 -6 23 8 21 9 -2 31 -10 47 -18 17 -9
55 -26 87 -38 l56 -23 41 26 c22 14 43 26 47 26 3 0 24 15 47 33 56 44 90 66
103 66 6 1 52 -47 101 -106z m1867 78 c4 -5 -3 -7 -14 -4 -23 6 -26 13 -6 13
8 0 17 -4 20 -9z m468 -32 c22 -22 31 -36 21 -31 -23 13 -80 72 -69 72 5 0 26
-18 48 -41z m-3489 18 c22 4 29 2 22 -5 -12 -12 -64 -20 -65 -9 -1 22 2 32 6
20 4 -8 17 -10 37 -6z m2957 -18 c0 -5 -9 -4 -19 3 -11 7 -17 16 -14 20 5 10
33 -10 33 -23z m617 15 c-3 -3 -12 -4 -19 -1 -8 3 -5 6 6 6 11 1 17 -2 13 -5z
m-572 -22 c-3 -3 -11 0 -18 7 -9 10 -8 11 6 5 10 -3 15 -9 12 -12z m123 9 c9
-5 37 -19 62 -31 62 -31 112 -69 105 -80 -3 -5 -32 8 -64 30 -32 22 -62 40
-67 40 -11 1 -72 50 -61 50 4 0 15 -4 25 -9z m552 -27 c-9 -10 -15 -10 -31 4
-10 9 -19 17 -19 17 0 1 14 0 30 -3 24 -3 28 -7 20 -18z m-1500 -8 c0 -3 -4
-8 -10 -11 -5 -3 -10 -1 -10 4 0 6 5 11 10 11 6 0 10 -2 10 -4z m570 -11 c7
-8 9 -15 6 -15 -4 0 -14 7 -22 15 -9 8 -11 15 -6 15 5 0 15 -7 22 -15z m230
-23 l25 -25 -40 23 c-53 31 -63 40 -34 33 13 -4 35 -18 49 -31z m80 24 c0 -3
-4 -8 -10 -11 -5 -3 -10 -1 -10 4 0 6 5 11 10 11 6 0 10 -2 10 -4z m-2285 -91
c24 -20 26 -23 8 -19 -22 6 -64 44 -47 44 5 -1 22 -12 39 -25z m2050 -5 c-2
-4 13 -12 34 -19 36 -10 76 -41 53 -41 -5 0 -15 7 -22 15 -7 9 -15 13 -18 11
-8 -8 -59 22 -65 38 -4 10 -1 13 8 9 8 -3 13 -8 10 -13z m135 -25 c0 -2 -13 4
-29 13 -17 9 -25 19 -19 23 9 6 48 -23 48 -36z m83 0 c15 -14 27 -28 27 -30 0
-9 -79 50 -84 63 -8 17 21 1 57 -33z m-2196 19 c15 -14 14 -16 -7 -12 -13 1
-25 9 -28 16 -5 17 16 15 35 -4z m-774 -93 c46 -86 65 -136 29 -76 -45 75 -91
165 -84 165 4 0 28 -40 55 -89z m3242 45 c11 -7 43 -26 70 -41 28 -15 59 -36
70 -47 11 -10 55 -49 98 -85 82 -70 107 -100 81 -100 -8 0 -13 7 -12 15 2 8
-21 32 -50 54 -45 33 -52 36 -41 17 12 -24 12 -24 -9 -5 -12 10 -19 23 -16 27
3 5 -1 6 -9 3 -8 -3 -20 2 -27 11 -7 8 -20 15 -29 15 -14 0 -14 2 -1 10 10 7
11 10 2 10 -7 0 -18 11 -24 25 -6 14 -32 35 -57 48 -25 12 -49 25 -52 30 -3 4
-16 9 -29 12 -32 6 -38 15 -9 15 14 0 33 -6 44 -14z m-2695 -28 c0 -12 -1 -19
-3 -17 -1 2 -9 12 -16 22 -12 14 -11 17 3 17 10 0 16 -8 16 -22z m2980 -19 c3
-3 20 -11 38 -18 17 -8 32 -17 32 -21 0 -5 3 -17 7 -27 5 -14 0 -13 -23 8 -47
41 -82 59 -101 52 -10 -3 -15 -3 -11 2 4 4 3 17 -3 27 -11 20 -11 20 23 2 18
-11 35 -22 38 -25z m-3010 -5 c0 -17 -22 -14 -28 4 -2 7 3 12 12 12 9 0 16 -7
16 -16z m877 -66 c65 -47 67 -51 41 -74 -15 -14 -20 -15 -16 -4 5 16 -55 70
-79 70 -7 0 -16 7 -19 15 -4 10 -13 13 -25 10 -14 -5 -19 -1 -19 13 0 10 3 21
6 25 9 9 53 -13 111 -55z m2249 16 c18 -14 18 -14 -6 -3 -31 14 -36 19 -24 19
6 0 19 -7 30 -16z m-3093 -15 c7 0 3 -4 -8 -8 -22 -9 -35 -5 -35 11 0 5 7 7
16 4 9 -3 21 -6 27 -7z m67 2 c0 -5 -6 -14 -14 -20 -11 -9 -15 -7 -19 9 -4 15
0 20 14 20 10 0 19 -4 19 -9z m3028 -52 c13 -16 20 -29 15 -29 -5 0 -19 14
-31 30 -29 39 -14 38 16 -1z m-3001 15 c-3 -3 -12 -4 -19 -1 -8 3 -5 6 6 6 11
1 17 -2 13 -5z m-92 -34 c-3 -5 -10 -10 -16 -10 -5 0 -9 5 -9 10 0 6 7 10 16
10 8 0 12 -4 9 -10z m770 -19 c3 -5 1 -12 -5 -16 -5 -3 -10 1 -10 9 0 18 6 21
15 7z m242 -220 c18 -17 9 -27 -69 -81 l-61 -42 -26 27 c-25 26 -25 27 -3 15
21 -10 23 -9 20 7 -2 13 -14 19 -40 21 -20 2 -39 10 -42 18 -4 11 -2 12 14 4
13 -7 21 -7 25 1 4 6 -3 13 -15 16 -22 6 -22 7 -5 19 15 11 16 18 8 36 -13 30
-6 48 15 42 15 -5 15 -4 2 8 -8 7 -16 23 -18 36 -4 31 26 29 38 -2 5 -14 19
-30 32 -37 13 -7 28 -19 35 -28 6 -9 14 -13 18 -9 4 4 -16 30 -44 59 -28 29
-51 56 -51 60 0 4 -3 16 -7 26 -4 10 31 -27 77 -82 46 -55 90 -106 97 -114z
m-993 184 c3 -9 0 -15 -9 -15 -16 0 -27 14 -18 24 10 10 21 7 27 -9z m746 -17
c0 -6 -6 -5 -15 2 -8 7 -15 14 -15 16 0 2 7 1 15 -2 8 -4 15 -11 15 -16z m4
-82 c4 -30 -6 -33 -30 -8 -16 16 -16 17 -1 20 9 2 17 8 17 14 0 21 12 0 14
-26z m-112 -48 c-7 -7 -12 -8 -12 -2 0 14 12 26 19 19 2 -3 -1 -11 -7 -17z
m-287 -8 c3 -5 1 -10 -4 -10 -6 0 -11 5 -11 10 0 6 2 10 4 10 3 0 8 -4 11 -10z
m-155 -30 c-20 -13 -33 -13 -25 0 3 6 14 10 23 10 15 0 15 -2 2 -10z m551 -7
c13 -16 12 -17 -3 -4 -17 13 -22 21 -14 21 2 0 10 -8 17 -17z m-376 -13 c3 -6
-1 -7 -9 -4 -18 7 -21 14 -7 14 6 0 13 -4 16 -10z m89 -55 c-4 -8 -11 -12 -16
-9 -6 4 -5 10 3 15 19 12 19 11 13 -6z m-80 -21 c5 -14 4 -15 -9 -4 -17 14
-19 20 -6 20 5 0 12 -7 15 -16z m406 -3 c0 -11 9 -26 20 -34 19 -13 19 -13 -2
-31 -16 -14 -22 -15 -29 -5 -5 8 -3 16 4 21 9 5 9 10 -1 20 -14 14 -16 48 -2
48 6 0 10 -9 10 -19z m-415 -41 c3 -5 1 -10 -4 -10 -6 0 -11 5 -11 10 0 6 2
10 4 10 3 0 8 -4 11 -10z m255 -14 c0 -11 -19 -15 -25 -6 -3 5 1 10 9 10 9 0
16 -2 16 -4z"/>
<path d="M5552 8318 c2 -13 11 -24 20 -26 13 -2 16 1 12 12 -3 9 -1 16 6 16 6
0 8 5 5 10 -3 6 -15 10 -26 10 -15 0 -20 -6 -17 -22z"/>
<path d="M5369 8294 c-1 -5 -1 -12 0 -16 0 -5 -6 -8 -14 -8 -8 0 -26 -17 -41
-37 -22 -32 -25 -34 -21 -13 6 24 5 24 -8 6 -25 -34 -19 -113 15 -184 75 -158
268 -265 367 -203 54 34 91 134 59 160 -18 15 -22 51 -5 51 18 0 -40 92 -93
146 -27 28 -70 61 -94 74 -46 23 -163 40 -165 24z m84 -11 c-7 -2 -19 -2 -25
0 -7 3 -2 5 12 5 14 0 19 -2 13 -5z m45 -67 c50 -26 114 -87 156 -150 28 -41
36 -120 17 -169 -11 -27 -57 -42 -65 -21 -3 8 0 11 8 8 16 -6 38 43 30 68 -4
14 -2 18 5 14 8 -5 9 6 6 35 -6 46 -41 112 -55 104 -5 -3 -11 -1 -15 5 -3 5
-1 10 5 10 23 0 -75 81 -110 90 -52 15 -113 12 -138 -6 -19 -13 -22 -13 -22 0
0 42 105 49 178 12z m-158 -107 c0 -6 6 -9 13 -6 18 6 67 -21 67 -39 0 -8 8
-26 17 -41 17 -25 17 -26 -7 -18 -19 6 -22 4 -17 -9 6 -15 4 -15 -24 -1 -16 9
-33 23 -36 31 -3 7 -11 14 -19 14 -10 0 -11 6 -4 26 7 19 7 31 -1 40 -8 10 -8
14 0 14 6 0 11 -5 11 -11z m273 -124 c-3 -9 -8 -14 -10 -11 -3 3 -2 9 2 15 9
16 15 13 8 -4z m-135 -27 c15 -15 16 -55 0 -64 -7 -4 -8 -3 -4 4 3 6 -3 16
-15 22 -11 7 -18 14 -15 17 3 3 12 0 21 -7 12 -10 15 -10 15 0 0 7 -8 19 -17
26 -10 7 -13 14 -7 14 5 0 15 -5 22 -12z m142 -48 c0 -5 -7 -10 -16 -10 -8 0
-12 5 -9 10 3 6 10 10 16 10 5 0 9 -4 9 -10z"/>
<path d="M5140 8116 c0 -16 28 -42 36 -33 8 7 -14 47 -26 47 -6 0 -10 -6 -10
-14z"/>
<path d="M4924 7939 c-3 -6 -1 -16 5 -22 8 -8 11 -5 11 11 0 24 -5 28 -16 11z"/>
<path d="M4943 7893 c9 -2 23 -2 30 0 6 3 -1 5 -18 5 -16 0 -22 -2 -12 -5z"/>
<path d="M5440 7735 c0 -8 7 -15 15 -15 8 0 15 7 15 15 0 8 -7 15 -15 15 -8 0
-15 -7 -15 -15z"/>
<path d="M5830 8322 c0 -5 7 -17 16 -28 14 -17 15 -17 10 -1 -3 10 -6 23 -6
28 0 5 -4 9 -10 9 -5 0 -10 -4 -10 -8z"/>
<path d="M5902 8210 c-14 -23 -17 -59 -3 -44 8 9 24 64 19 64 -2 0 -9 -9 -16
-20z"/>
<path d="M6243 7945 c0 -8 4 -15 9 -15 4 0 8 4 8 9 0 6 -4 12 -8 15 -5 3 -9
-1 -9 -9z"/>
<path d="M6362 8078 c6 -18 25 -21 25 -3 0 8 -7 15 -14 15 -8 0 -13 -5 -11
-12z"/>
<path d="M6382 7738 c2 -6 10 -14 16 -16 7 -2 10 2 6 12 -7 18 -28 22 -22 4z"/>
<path d="M6160 7420 c-9 -6 -10 -10 -3 -10 6 0 15 5 18 10 8 12 4 12 -15 0z"/>
<path d="M6145 7390 c-3 -6 1 -7 9 -4 18 7 21 14 7 14 -6 0 -13 -4 -16 -10z"/>
<path d="M6040 7379 c0 -5 5 -7 10 -4 6 3 10 8 10 11 0 2 -4 4 -10 4 -5 0 -10
-5 -10 -11z"/>
<path d="M6087 7340 c-3 -11 -1 -20 4 -20 5 0 9 9 9 20 0 11 -2 20 -4 20 -2 0
-6 -9 -9 -20z"/>
<path d="M4820 7210 c-19 -16 -30 -30 -25 -30 13 0 26 10 49 38 26 30 18 28
-24 -8z"/>
<path d="M4733 7065 c0 -7 6 -11 14 -8 7 3 13 6 13 8 0 2 -6 5 -13 8 -8 3 -14
-1 -14 -8z"/>
<path d="M5340 7009 c0 -5 5 -7 10 -4 6 3 10 8 10 11 0 2 -4 4 -10 4 -5 0 -10
-5 -10 -11z"/>
<path d="M5521 6761 c-8 -5 -9 -11 -3 -15 5 -3 12 1 16 9 6 17 6 18 -13 6z"/>
<path d="M5615 6709 c-4 -6 -5 -12 -2 -15 2 -3 7 2 10 11 7 17 1 20 -8 4z"/>
<path d="M5050 6400 c8 -5 22 -10 30 -10 13 0 13 1 0 10 -8 5 -22 10 -30 10
-13 0 -13 -1 0 -10z"/>
<path d="M5285 6340 c-3 -5 2 -9 12 -8 33 2 54 -2 49 -11 -3 -4 7 -6 21 -3 25
5 23 6 -18 18 -53 16 -56 17 -64 4z"/>
<path d="M5775 6330 c11 -5 29 -8 40 -8 16 0 15 2 -5 8 -34 11 -60 11 -35 0z"/>
<path d="M5826 6311 c-25 -10 -11 -18 34 -21 57 -4 80 1 45 10 -16 4 -37 10
-45 13 -8 3 -24 2 -34 -2z"/>
<path d="M5763 6303 c9 -2 23 -2 30 0 6 3 -1 5 -18 5 -16 0 -22 -2 -12 -5z"/>
<path d="M5440 6280 c8 -5 24 -9 35 -9 l20 0 -20 9 c-11 5 -27 9 -35 9 -13 1
-13 0 0 -9z"/>
<path d="M6255 6140 c3 -5 8 -10 11 -10 2 0 4 5 4 10 0 6 -5 10 -11 10 -5 0
-7 -4 -4 -10z"/>
<path d="M6315 6100 c3 -5 8 -10 11 -10 2 0 4 5 4 10 0 6 -5 10 -11 10 -5 0
-7 -4 -4 -10z"/>
<path d="M6340 6092 c0 -11 42 -35 68 -38 18 -2 20 0 9 10 -27 27 -77 46 -77
28z"/>
<path d="M6565 6080 c3 -5 8 -10 11 -10 2 0 4 5 4 10 0 6 -5 10 -11 10 -5 0
-7 -4 -4 -10z"/>
<path d="M6091 6018 c-6 -17 -11 -40 -10 -52 1 -15 5 -10 13 14 6 19 14 40 19
47 4 6 3 14 -2 17 -5 3 -14 -8 -20 -26z"/>
<path d="M6448 6033 c6 -2 18 -2 25 0 6 3 1 5 -13 5 -14 0 -19 -2 -12 -5z"/>
<path d="M6158 6023 c6 -2 9 -10 6 -15 -4 -7 -2 -8 4 -4 18 11 14 26 -5 25
-11 0 -13 -3 -5 -6z"/>
<path d="M4897 6314 c-9 -10 2 -24 19 -24 8 0 14 7 14 15 0 15 -21 21 -33 9z"/>
<path d="M4948 6253 c7 -3 16 -2 19 1 4 3 -2 6 -13 5 -11 0 -14 -3 -6 -6z"/>
<path d="M5313 6173 c-22 -8 -14 -23 11 -21 19 2 22 5 14 15 -6 7 -11 13 -12
12 0 0 -7 -3 -13 -6z"/>
<path d="M5541 5639 c-52 -10 -65 -19 -27 -19 15 0 49 -11 76 -25 41 -21 53
-23 80 -14 l31 11 -34 24 c-44 29 -71 34 -126 23z"/>
<path d="M5460 5610 c8 -5 20 -10 25 -10 6 0 3 5 -5 10 -8 5 -19 10 -25 10 -5
0 -3 -5 5 -10z"/>
<path d="M5550 5530 c-12 -8 -11 -10 8 -10 12 0 22 5 22 10 0 13 -11 13 -30 0z"/>
<path d="M5677 5529 c7 -7 15 -10 18 -7 3 3 -2 9 -12 12 -14 6 -15 5 -6 -5z"/>
<path d="M5472 5505 c11 -11 58 -15 58 -5 0 5 -14 10 -32 10 -17 0 -29 -2 -26
-5z"/>
<path d="M5647 5460 c3 -11 9 -20 15 -20 5 0 4 9 -2 20 -6 11 -12 20 -14 20
-2 0 -2 -9 1 -20z"/>
<path d="M5860 5310 c0 -5 5 -10 11 -10 5 0 7 5 4 10 -3 6 -8 10 -11 10 -2 0
-4 -4 -4 -10z"/>
<path d="M5870 5281 c0 -6 4 -13 10 -16 6 -3 7 1 4 9 -7 18 -14 21 -14 7z"/>
<path d="M4719 6094 c-23 -25 -23 -26 -2 -13 13 7 25 19 27 26 8 19 2 16 -25
-13z"/>
<path d="M4525 5970 c3 -5 14 -10 23 -10 15 0 15 2 2 10 -20 13 -33 13 -25 0z"/>
<path d="M4605 5960 c3 -5 8 -10 11 -10 2 0 4 5 4 10 0 6 -5 10 -11 10 -5 0
-7 -4 -4 -10z"/>
<path d="M4515 5870 c3 -5 8 -10 11 -10 2 0 4 5 4 10 0 6 -5 10 -11 10 -5 0
-7 -4 -4 -10z"/>
<path d="M4880 5864 c0 -8 5 -12 10 -9 6 3 10 10 10 16 0 5 -4 9 -10 9 -5 0
-10 -7 -10 -16z"/>
<path d="M6920 5666 c0 -2 7 -9 15 -16 12 -10 15 -10 15 4 0 9 -7 16 -15 16
-8 0 -15 -2 -15 -4z"/>
<path d="M7001 5656 c-21 -25 -10 -61 21 -64 33 -4 66 35 45 54 -21 21 -53 25
-66 10z"/>
<path d="M7220 5502 c0 -16 7 -35 15 -42 8 -7 15 -23 15 -37 0 -14 4 -21 10
-18 6 3 10 -1 10 -9 0 -9 7 -16 15 -16 8 0 24 -9 36 -21 27 -27 33 -20 15 17
-8 16 -16 46 -18 67 -3 49 -24 69 -37 36 -9 -23 -9 -23 -16 -4 -19 57 -45 73
-45 27z"/>
<path d="M7217 5418 c4 -18 3 -20 -6 -8 -9 13 -11 13 -11 -2 0 -26 11 -48 21
-42 5 3 7 10 4 15 -4 5 -1 9 4 9 14 0 8 43 -7 48 -6 2 -8 -6 -5 -20z"/>
<path d="M7056 4953 c-4 -9 -1 -21 5 -27 9 -8 10 -7 6 6 -3 9 -1 18 6 21 8 2
8 5 0 10 -6 4 -14 -1 -17 -10z"/>
<path d="M7060 4899 c0 -5 5 -7 10 -4 6 3 10 8 10 11 0 2 -4 4 -10 4 -5 0 -10
-5 -10 -11z"/>
<path d="M6431 5079 c-6 -18 -11 -38 -11 -45 0 -21 25 -17 27 4 1 9 5 29 9 45
9 38 -11 35 -25 -4z"/>
<path d="M6411 4976 c-6 -16 -10 -31 -7 -33 7 -8 28 37 23 50 -3 7 -10 -1 -16
-17z"/>
<path d="M6352 4816 c-13 -24 -35 -49 -50 -56 -19 -9 -23 -14 -12 -18 7 -3 16
0 18 6 2 6 10 8 17 6 9 -4 16 3 21 20 3 14 12 26 19 26 7 0 15 14 17 30 6 42
-3 37 -30 -14z"/>
<path d="M6255 4750 c-3 -5 -1 -10 4 -10 6 0 11 5 11 10 0 6 -2 10 -4 10 -3 0
-8 -4 -11 -10z"/>
<path d="M6390 4690 c0 -5 5 -10 10 -10 6 0 10 5 10 10 0 6 -4 10 -10 10 -5 0
-10 -4 -10 -10z"/>
<path d="M6369 4653 c-13 -16 -12 -17 4 -4 9 7 17 15 17 17 0 8 -8 3 -21 -13z"/>
<path d="M6135 4620 c-3 -6 1 -7 9 -4 18 7 21 14 7 14 -6 0 -13 -4 -16 -10z"/>
<path d="M6190 4599 c0 -5 5 -7 10 -4 6 3 10 8 10 11 0 2 -4 4 -10 4 -5 0 -10
-5 -10 -11z"/>
<path d="M1800 4720 c-23 -7 -23 -8 -3 -9 12 -1 25 4 28 9 3 6 5 10 3 9 -2 -1
-14 -5 -28 -9z"/>
<path d="M1795 4690 c3 -5 8 -10 11 -10 2 0 4 5 4 10 0 6 -5 10 -11 10 -5 0
-7 -4 -4 -10z"/>
<path d="M958 4949 l-33 -30 31 15 c34 16 63 46 45 46 -6 0 -25 -14 -43 -31z"/>
<path d="M921 4841 c-8 -5 -9 -11 -3 -15 5 -3 15 1 22 9 14 16 3 20 -19 6z"/>
<path d="M795 4820 c-3 -5 -1 -10 4 -10 6 0 11 5 11 10 0 6 -2 10 -4 10 -3 0
-8 -4 -11 -10z"/>
<path d="M1100 4770 c-8 -5 -11 -12 -8 -16 4 -3 14 1 23 10 18 17 9 21 -15 6z"/>
<path d="M836 4524 c-10 -26 -7 -56 5 -49 6 4 8 14 5 22 -4 9 -1 22 5 29 7 9
8 14 1 14 -5 0 -13 -7 -16 -16z"/>
<path d="M667 4446 c-4 -10 -1 -13 9 -9 7 3 14 9 14 14 0 14 -17 10 -23 -5z"/>
<path d="M1124 4678 c-5 -8 -2 -9 9 -5 12 5 17 1 17 -12 0 -24 25 -46 35 -31
4 6 1 9 -7 8 -9 -2 -12 6 -10 25 2 21 -1 27 -17 27 -11 0 -23 -5 -27 -12z"/>
<path d="M6604 4272 c-18 -6 -19 -9 -9 -19 10 -9 17 -8 31 8 18 20 14 22 -22
11z"/>
<path d="M6740 4170 c-13 -9 -13 -10 0 -9 8 0 24 4 35 9 l20 9 -20 0 c-11 0
-27 -4 -35 -9z"/>
<path d="M10560 4066 c0 -9 30 -14 35 -6 4 6 -3 10 -14 10 -12 0 -21 -2 -21
-4z"/>
<path d="M10560 4030 c0 -5 9 -10 20 -10 11 0 20 5 20 10 0 6 -9 10 -20 10
-11 0 -20 -4 -20 -10z"/>
<path d="M10065 3950 c-3 -5 -1 -10 4 -10 6 0 11 5 11 10 0 6 -2 10 -4 10 -3
0 -8 -4 -11 -10z"/>
<path d="M10081 3920 c0 -19 28 -70 29 -52 0 6 7 12 15 12 8 0 15 5 15 10 0 6
-5 10 -11 10 -5 0 -8 4 -5 9 4 5 -2 8 -11 7 -10 -2 -21 2 -25 8 -5 7 -8 6 -7
-4z"/>
<path d="M7123 3790 c-27 -11 -27 -11 -11 -45 6 -14 19 -25 30 -25 24 0 23 15
-4 42 -16 16 -17 20 -4 15 9 -4 14 -3 11 2 -3 5 3 12 12 14 12 3 13 5 3 5 -8
0 -25 -3 -37 -8z"/>
<path d="M6896 3552 c-3 -5 1 -9 9 -9 8 0 15 4 15 9 0 4 -4 8 -9 8 -6 0 -12
-4 -15 -8z"/>
<path d="M6886 3512 c-3 -5 1 -18 9 -28 8 -10 14 -23 15 -29 0 -5 -4 -4 -9 3
-6 10 -11 1 -18 -26 -10 -40 -10 -40 13 -30 17 8 24 19 24 40 0 22 5 28 21 28
11 0 18 4 14 10 -3 5 -12 7 -19 4 -8 -3 -21 4 -29 16 -8 12 -17 17 -21 12z"/>
<path d="M7905 3390 c-3 -5 -1 -10 4 -10 6 0 11 5 11 10 0 6 -2 10 -4 10 -3 0
-8 -4 -11 -10z"/>
<path d="M8905 3060 c3 -5 8 -10 11 -10 2 0 4 5 4 10 0 6 -5 10 -11 10 -5 0
-7 -4 -4 -10z"/>
<path d="M9075 3171 c-3 -5 -1 -12 5 -16 5 -3 10 1 10 9 0 18 -6 21 -15 7z"/>
<path d="M9100 2980 c8 -5 20 -10 25 -10 6 0 3 5 -5 10 -8 5 -19 10 -25 10 -5
0 -3 -5 5 -10z"/>
<path d="M9880 2746 c0 -2 7 -7 16 -10 8 -3 12 -2 9 4 -6 10 -25 14 -25 6z"/>
<path d="M10080 2626 c0 -2 9 -6 20 -9 11 -3 18 -1 14 4 -5 9 -34 13 -34 5z"/>
<path d="M10115 2591 c-6 -11 13 -26 42 -33 15 -4 20 -2 17 7 -7 16 -52 37
-59 26z"/>
<path d="M9455 2105 c17 -8 41 -14 55 -14 23 0 23 1 5 8 -11 5 -36 11 -55 15
l-35 6 30 -15z"/>
<path d="M9759 1941 c12 -8 12 -12 2 -24 -12 -16 -10 -19 22 -30 12 -5 16 -3
11 5 -5 7 -2 9 8 5 12 -4 14 -1 11 15 -3 11 -17 24 -30 29 -31 11 -42 11 -24
0z m31 -31 c0 -5 -5 -10 -11 -10 -5 0 -7 5 -4 10 3 6 8 10 11 10 2 0 4 -4 4
-10z"/>
<path d="M9810 1870 c0 -5 5 -10 11 -10 5 0 7 5 4 10 -3 6 -8 10 -11 10 -2 0
-4 -4 -4 -10z"/>
<path d="M9170 1749 c0 -5 5 -7 10 -4 6 3 10 8 10 11 0 2 -4 4 -10 4 -5 0 -10
-5 -10 -11z"/>
<path d="M7990 1540 c0 -5 5 -10 10 -10 6 0 10 5 10 10 0 6 -4 10 -10 10 -5 0
-10 -4 -10 -10z"/>
<path d="M8025 1490 c3 -5 11 -10 16 -10 6 0 7 5 4 10 -3 6 -11 10 -16 10 -6
0 -7 -4 -4 -10z"/>
<path d="M7890 1484 c0 -9 55 -74 63 -74 14 0 7 15 -22 48 -27 30 -41 39 -41
26z"/>
<path d="M7980 1485 c0 -3 9 -16 21 -28 l20 -22 -9 24 c-8 23 -32 42 -32 26z"/>
<path d="M8092 1472 c-10 -3 -10 -7 -2 -17 6 -8 17 -12 25 -9 18 7 30 -15 16
-29 -21 -21 -13 -40 16 -34 15 3 36 1 45 -4 14 -7 18 -6 18 6 0 8 -7 15 -15
15 -9 0 -21 11 -27 25 -12 27 -56 54 -76 47z"/>
<path d="M8040 1450 c-10 -6 -11 -10 -3 -10 7 0 15 -11 19 -25 3 -14 11 -25
18 -25 21 0 39 18 31 30 -6 9 -10 9 -16 -1 -8 -11 -12 -10 -24 5 -8 10 -12 23
-9 27 7 11 3 11 -16 -1z"/>
<path d="M8260 1346 c0 -2 7 -7 16 -10 8 -3 12 -2 9 4 -6 10 -25 14 -25 6z"/>
<path d="M8260 1310 c0 -5 5 -10 10 -10 6 0 10 5 10 10 0 6 -4 10 -10 10 -5 0
-10 -4 -10 -10z"/>
<path d="M10470 1226 c0 -2 7 -7 16 -10 8 -3 12 -2 9 4 -6 10 -25 14 -25 6z"/>
<path d="M8513 993 c-21 -7 -15 -50 7 -56 13 -3 20 0 20 9 0 8 5 14 10 14 6 0
10 3 10 8 0 12 -34 29 -47 25z"/>
<path d="M8594 931 c-4 -17 -10 -28 -14 -26 -11 7 -40 -5 -40 -15 0 -5 16 -8
35 -7 24 1 35 7 35 18 0 8 5 20 10 25 8 8 6 15 -5 24 -13 11 -16 8 -21 -19z"/>
<path d="M8560 870 c-13 -8 -12 -10 3 -10 9 0 17 5 17 10 0 12 -1 12 -20 0z"/>
<path d="M10786 4075 c4 -8 8 -15 10 -15 2 0 4 7 4 15 0 8 -4 15 -10 15 -5 0
-7 -7 -4 -15z"/>
<path d="M10705 4010 c3 -5 8 -10 11 -10 2 0 4 5 4 10 0 6 -5 10 -11 10 -5 0
-7 -4 -4 -10z"/>
<path d="M10748 3993 c7 -3 16 -2 19 1 4 3 -2 6 -13 5 -11 0 -14 -3 -6 -6z"/>
<path d="M10580 3959 c0 -5 5 -7 10 -4 6 3 10 8 10 11 0 2 -4 4 -10 4 -5 0
-10 -5 -10 -11z"/>
<path d="M10766 2864 c-11 -28 -6 -38 9 -18 8 10 15 22 15 27 0 13 -18 7 -24
-9z"/>
<path d="M10688 2793 c7 -3 16 -2 19 1 4 3 -2 6 -13 5 -11 0 -14 -3 -6 -6z"/>
<path d="M10616 2772 c-3 -6 3 -12 15 -15 12 -3 19 -1 16 6 -5 15 -24 20 -31
9z"/>
<path d="M10741 2776 c12 -10 60 -16 54 -6 -3 5 -18 10 -32 10 -15 0 -24 -2
-22 -4z"/>
<path d="M10570 2739 c0 -5 5 -7 10 -4 6 3 10 8 10 11 0 2 -4 4 -10 4 -5 0
-10 -5 -10 -11z"/>
<path d="M10693 2743 c9 -2 25 -2 35 0 9 3 1 5 -18 5 -19 0 -27 -2 -17 -5z"/>
</g>
</svg>
